<svg xmlns="http://www.w3.org/2000/svg" xmlns:xlink="http://www.w3.org/1999/xlink" width="1000" zoomAndPan="magnify" viewBox="0 0 750 60" height="80" preserveAspectRatio="xMidYMid meet" version="1.0"><defs><g/></defs><g fill="#f6f6f6" fill-opacity="1"><g transform="translate(6, 42.875637)"><g><path d="M 12.515625 -27.625 L 21.96875 -3.25 C 22.351562 -2.269531 22.789062 -1.617188 23.28125 -1.296875 C 23.78125 -0.972656 24.234375 -0.800781 24.640625 -0.78125 L 24.640625 0 C 24.128906 -0.0507812 23.5 -0.0820312 22.75 -0.09375 C 22 -0.101562 21.25 -0.109375 20.5 -0.109375 C 19.488281 -0.109375 18.546875 -0.101562 17.671875 -0.09375 C 16.796875 -0.0820312 16.082031 -0.0507812 15.53125 0 L 15.53125 -0.78125 C 16.851562 -0.832031 17.691406 -1.054688 18.046875 -1.453125 C 18.410156 -1.847656 18.335938 -2.707031 17.828125 -4.03125 L 10.625 -23.28125 L 11.234375 -23.796875 L 4.5 -6.28125 C 4.082031 -5.25 3.832031 -4.375 3.75 -3.65625 C 3.675781 -2.945312 3.75 -2.382812 3.96875 -1.96875 C 4.1875 -1.5625 4.5625 -1.265625 5.09375 -1.078125 C 5.625 -0.898438 6.289062 -0.800781 7.09375 -0.78125 L 7.09375 0 C 6.363281 -0.0507812 5.601562 -0.0820312 4.8125 -0.09375 C 4.03125 -0.101562 3.304688 -0.109375 2.640625 -0.109375 C 1.992188 -0.109375 1.441406 -0.101562 0.984375 -0.09375 C 0.535156 -0.0820312 0.117188 -0.0507812 -0.265625 0 L -0.265625 -0.78125 C 0.242188 -0.90625 0.769531 -1.207031 1.3125 -1.6875 C 1.851562 -2.164062 2.347656 -2.984375 2.796875 -4.140625 L 11.890625 -27.625 C 11.992188 -27.625 12.097656 -27.625 12.203125 -27.625 C 12.304688 -27.625 12.410156 -27.625 12.515625 -27.625 Z M 17.25 -11.15625 L 17.25 -10.390625 L 5.703125 -10.390625 L 6.078125 -11.15625 Z M 17.25 -11.15625 "/></g></g></g><g fill="#f6f6f6" fill-opacity="1"><g transform="translate(29.632678, 42.875637)"><g><path d="M 11.515625 -27.4375 L 11.515625 -26.65625 C 10.628906 -26.632812 9.957031 -26.539062 9.5 -26.375 C 9.050781 -26.207031 8.75 -25.894531 8.59375 -25.4375 C 8.445312 -24.988281 8.375 -24.285156 8.375 -23.328125 L 8.375 -4.109375 C 8.375 -3.179688 8.445312 -2.484375 8.59375 -2.015625 C 8.75 -1.546875 9.050781 -1.234375 9.5 -1.078125 C 9.957031 -0.929688 10.628906 -0.832031 11.515625 -0.78125 L 11.515625 0 C 10.921875 -0.0507812 10.175781 -0.0820312 9.28125 -0.09375 C 8.382812 -0.101562 7.488281 -0.109375 6.59375 -0.109375 C 5.582031 -0.109375 4.632812 -0.101562 3.75 -0.09375 C 2.875 -0.0820312 2.164062 -0.0507812 1.625 0 L 1.625 -0.78125 C 2.5 -0.832031 3.160156 -0.929688 3.609375 -1.078125 C 4.066406 -1.234375 4.375 -1.546875 4.53125 -2.015625 C 4.6875 -2.484375 4.765625 -3.179688 4.765625 -4.109375 L 4.765625 -23.328125 C 4.765625 -24.285156 4.6875 -24.988281 4.53125 -25.4375 C 4.375 -25.894531 4.066406 -26.207031 3.609375 -26.375 C 3.160156 -26.539062 2.5 -26.632812 1.625 -26.65625 L 1.625 -27.4375 C 2.164062 -27.40625 2.875 -27.375 3.75 -27.34375 C 4.632812 -27.320312 5.582031 -27.3125 6.59375 -27.3125 C 7.488281 -27.3125 8.382812 -27.320312 9.28125 -27.34375 C 10.175781 -27.375 10.921875 -27.40625 11.515625 -27.4375 Z M 11.515625 -27.4375 "/></g></g></g><g fill="#f6f6f6" fill-opacity="1"><g transform="translate(42.766284, 42.875637)"><g><path d="M 4.875 -4.421875 C 5.550781 -4.421875 6.132812 -4.171875 6.625 -3.671875 C 7.113281 -3.179688 7.359375 -2.601562 7.359375 -1.9375 C 7.359375 -1.269531 7.113281 -0.6875 6.625 -0.1875 C 6.132812 0.300781 5.550781 0.546875 4.875 0.546875 C 4.207031 0.546875 3.628906 0.300781 3.140625 -0.1875 C 2.648438 -0.6875 2.40625 -1.269531 2.40625 -1.9375 C 2.40625 -2.601562 2.648438 -3.179688 3.140625 -3.671875 C 3.628906 -4.171875 4.207031 -4.421875 4.875 -4.421875 Z M 4.875 -4.421875 "/></g></g></g><g fill="#f6f6f6" fill-opacity="1"><g transform="translate(52.529318, 42.875637)"><g/></g></g><g fill="#f6f6f6" fill-opacity="1"><g transform="translate(62.176126, 42.875637)"><g><path d="M 14.5625 -27.984375 C 16.25 -27.984375 17.609375 -27.726562 18.640625 -27.21875 C 19.671875 -26.71875 20.640625 -26.128906 21.546875 -25.453125 C 21.878906 -25.203125 22.132812 -25.078125 22.3125 -25.078125 C 22.8125 -25.078125 23.132812 -25.863281 23.28125 -27.4375 L 24.1875 -27.4375 C 24.132812 -26.476562 24.09375 -25.3125 24.0625 -23.9375 C 24.039062 -22.570312 24.03125 -20.765625 24.03125 -18.515625 L 23.140625 -18.515625 C 22.953125 -19.609375 22.726562 -20.65625 22.46875 -21.65625 C 22.21875 -22.664062 21.796875 -23.53125 21.203125 -24.25 C 20.453125 -25.207031 19.46875 -25.953125 18.25 -26.484375 C 17.039062 -27.015625 15.789062 -27.28125 14.5 -27.28125 C 13.207031 -27.28125 12.035156 -26.960938 10.984375 -26.328125 C 9.941406 -25.691406 9.046875 -24.78125 8.296875 -23.59375 C 7.546875 -22.40625 6.96875 -20.976562 6.5625 -19.3125 C 6.164062 -17.644531 5.96875 -15.765625 5.96875 -13.671875 C 5.96875 -9.023438 6.71875 -5.625 8.21875 -3.46875 C 9.71875 -1.3125 12.039062 -0.234375 15.1875 -0.234375 C 16.113281 -0.234375 16.921875 -0.367188 17.609375 -0.640625 C 18.296875 -0.910156 18.832031 -1.175781 19.21875 -1.4375 C 19.707031 -1.769531 20.015625 -2.082031 20.140625 -2.375 C 20.273438 -2.675781 20.34375 -3.070312 20.34375 -3.5625 L 20.34375 -7.28125 C 20.34375 -8.34375 20.238281 -9.128906 20.03125 -9.640625 C 19.820312 -10.160156 19.441406 -10.507812 18.890625 -10.6875 C 18.335938 -10.875 17.519531 -10.976562 16.4375 -11 L 16.4375 -11.78125 C 16.894531 -11.75 17.429688 -11.726562 18.046875 -11.71875 C 18.671875 -11.707031 19.328125 -11.691406 20.015625 -11.671875 C 20.703125 -11.660156 21.328125 -11.65625 21.890625 -11.65625 C 22.742188 -11.65625 23.507812 -11.664062 24.1875 -11.6875 C 24.875 -11.71875 25.453125 -11.75 25.921875 -11.78125 L 25.921875 -11 C 25.359375 -10.976562 24.929688 -10.890625 24.640625 -10.734375 C 24.359375 -10.578125 24.171875 -10.265625 24.078125 -9.796875 C 23.992188 -9.335938 23.953125 -8.628906 23.953125 -7.671875 L 23.953125 0 L 23.171875 0 C 23.148438 -0.4375 23.050781 -0.910156 22.875 -1.421875 C 22.707031 -1.941406 22.457031 -2.203125 22.125 -2.203125 C 21.96875 -2.203125 21.8125 -2.160156 21.65625 -2.078125 C 21.5 -2.003906 21.226562 -1.828125 20.84375 -1.546875 C 19.988281 -0.898438 19.082031 -0.390625 18.125 -0.015625 C 17.175781 0.359375 16.066406 0.546875 14.796875 0.546875 C 12.140625 0.546875 9.859375 0 7.953125 -1.09375 C 6.054688 -2.195312 4.601562 -3.78125 3.59375 -5.84375 C 2.59375 -7.914062 2.09375 -10.382812 2.09375 -13.25 C 2.09375 -16.269531 2.632812 -18.878906 3.71875 -21.078125 C 4.800781 -23.273438 6.28125 -24.972656 8.15625 -26.171875 C 10.03125 -27.378906 12.164062 -27.984375 14.5625 -27.984375 Z M 14.5625 -27.984375 "/></g></g></g><g fill="#f6f6f6" fill-opacity="1"><g transform="translate(89.411885, 42.875637)"><g><path d="M 1.625 -27.4375 C 2.164062 -27.40625 2.875 -27.375 3.75 -27.34375 C 4.632812 -27.320312 5.503906 -27.3125 6.359375 -27.3125 C 7.566406 -27.3125 8.726562 -27.320312 9.84375 -27.34375 C 10.957031 -27.375 11.742188 -27.390625 12.203125 -27.390625 C 14.296875 -27.390625 16.03125 -27.09375 17.40625 -26.5 C 18.789062 -25.90625 19.828125 -25.097656 20.515625 -24.078125 C 21.203125 -23.054688 21.546875 -21.914062 21.546875 -20.65625 C 21.546875 -19.875 21.390625 -19.046875 21.078125 -18.171875 C 20.765625 -17.296875 20.226562 -16.46875 19.46875 -15.6875 C 18.707031 -14.914062 17.664062 -14.273438 16.34375 -13.765625 C 15.03125 -13.265625 13.367188 -13.015625 11.359375 -13.015625 L 7.640625 -13.015625 L 7.640625 -13.796875 L 10.96875 -13.796875 C 12.800781 -13.796875 14.203125 -14.082031 15.171875 -14.65625 C 16.140625 -15.238281 16.796875 -16.015625 17.140625 -16.984375 C 17.492188 -17.953125 17.671875 -19.035156 17.671875 -20.234375 C 17.671875 -22.265625 17.1875 -23.84375 16.21875 -24.96875 C 15.25 -26.09375 13.585938 -26.65625 11.234375 -26.65625 C 10.046875 -26.65625 9.269531 -26.4375 8.90625 -26 C 8.550781 -25.5625 8.375 -24.671875 8.375 -23.328125 L 8.375 -4.109375 C 8.375 -3.179688 8.445312 -2.484375 8.59375 -2.015625 C 8.75 -1.546875 9.050781 -1.234375 9.5 -1.078125 C 9.957031 -0.929688 10.628906 -0.832031 11.515625 -0.78125 L 11.515625 0 C 10.921875 -0.0507812 10.175781 -0.0820312 9.28125 -0.09375 C 8.382812 -0.101562 7.488281 -0.109375 6.59375 -0.109375 C 5.582031 -0.109375 4.632812 -0.101562 3.75 -0.09375 C 2.875 -0.0820312 2.164062 -0.0507812 1.625 0 L 1.625 -0.78125 C 2.5 -0.832031 3.160156 -0.929688 3.609375 -1.078125 C 4.066406 -1.234375 4.375 -1.546875 4.53125 -2.015625 C 4.6875 -2.484375 4.765625 -3.179688 4.765625 -4.109375 L 4.765625 -23.328125 C 4.765625 -24.285156 4.6875 -24.988281 4.53125 -25.4375 C 4.375 -25.894531 4.066406 -26.207031 3.609375 -26.375 C 3.160156 -26.539062 2.5 -26.632812 1.625 -26.65625 Z M 7.78125 -13.671875 C 9.175781 -13.617188 10.273438 -13.5625 11.078125 -13.5 C 11.878906 -13.4375 12.53125 -13.378906 13.03125 -13.328125 C 13.539062 -13.273438 14.03125 -13.210938 14.5 -13.140625 C 16.226562 -12.847656 17.472656 -12.320312 18.234375 -11.5625 C 18.992188 -10.800781 19.554688 -9.617188 19.921875 -8.015625 L 20.890625 -4.0625 C 21.148438 -2.925781 21.414062 -2.109375 21.6875 -1.609375 C 21.957031 -1.109375 22.375 -0.867188 22.9375 -0.890625 C 23.375 -0.921875 23.738281 -1.0625 24.03125 -1.3125 C 24.332031 -1.570312 24.65625 -1.921875 25 -2.359375 L 25.578125 -1.9375 C 25.035156 -1.132812 24.472656 -0.519531 23.890625 -0.09375 C 23.304688 0.332031 22.484375 0.546875 21.421875 0.546875 C 20.472656 0.546875 19.632812 0.261719 18.90625 -0.296875 C 18.1875 -0.867188 17.644531 -1.984375 17.28125 -3.640625 L 16.4375 -7.515625 C 16.195312 -8.628906 15.925781 -9.59375 15.625 -10.40625 C 15.332031 -11.21875 14.921875 -11.851562 14.390625 -12.3125 C 13.859375 -12.78125 13.078125 -13.015625 12.046875 -13.015625 L 7.859375 -13.015625 Z M 7.78125 -13.671875 "/></g></g></g><g fill="#f6f6f6" fill-opacity="1"><g transform="translate(114.516822, 42.875637)"><g><path d="M 14.375 -27.984375 C 16.832031 -27.984375 18.984375 -27.425781 20.828125 -26.3125 C 22.671875 -25.195312 24.101562 -23.597656 25.125 -21.515625 C 26.144531 -19.441406 26.65625 -16.921875 26.65625 -13.953125 C 26.65625 -11.054688 26.128906 -8.519531 25.078125 -6.34375 C 24.035156 -4.175781 22.582031 -2.484375 20.71875 -1.265625 C 18.863281 -0.0546875 16.738281 0.546875 14.34375 0.546875 C 11.882812 0.546875 9.726562 -0.0078125 7.875 -1.125 C 6.03125 -2.238281 4.597656 -3.835938 3.578125 -5.921875 C 2.554688 -8.015625 2.046875 -10.535156 2.046875 -13.484375 C 2.046875 -16.378906 2.578125 -18.910156 3.640625 -21.078125 C 4.703125 -23.242188 6.15625 -24.9375 8 -26.15625 C 9.84375 -27.375 11.96875 -27.984375 14.375 -27.984375 Z M 14.21875 -27.28125 C 12.539062 -27.28125 11.082031 -26.695312 9.84375 -25.53125 C 8.601562 -24.375 7.640625 -22.773438 6.953125 -20.734375 C 6.265625 -18.691406 5.921875 -16.328125 5.921875 -13.640625 C 5.921875 -10.898438 6.300781 -8.515625 7.0625 -6.484375 C 7.832031 -4.460938 8.867188 -2.898438 10.171875 -1.796875 C 11.472656 -0.703125 12.914062 -0.15625 14.5 -0.15625 C 16.175781 -0.15625 17.632812 -0.734375 18.875 -1.890625 C 20.113281 -3.054688 21.070312 -4.664062 21.75 -6.71875 C 22.4375 -8.769531 22.78125 -11.128906 22.78125 -13.796875 C 22.78125 -16.554688 22.398438 -18.941406 21.640625 -20.953125 C 20.878906 -22.972656 19.851562 -24.53125 18.5625 -25.625 C 17.269531 -26.726562 15.820312 -27.28125 14.21875 -27.28125 Z M 14.21875 -27.28125 "/></g></g></g><g fill="#f6f6f6" fill-opacity="1"><g transform="translate(142.798593, 42.875637)"><g><path d="M 35.140625 -27.4375 L 35.140625 -26.65625 C 34.648438 -26.550781 34.109375 -26.257812 33.515625 -25.78125 C 32.921875 -25.3125 32.441406 -24.476562 32.078125 -23.28125 L 24.765625 0.1875 C 24.710938 0.1875 24.660156 0.1875 24.609375 0.1875 C 24.554688 0.1875 24.503906 0.1875 24.453125 0.1875 C 24.398438 0.1875 24.347656 0.1875 24.296875 0.1875 C 24.242188 0.1875 24.191406 0.1875 24.140625 0.1875 L 15.921875 -24.1875 C 15.585938 -25.1875 15.210938 -25.84375 14.796875 -26.15625 C 14.390625 -26.46875 14.003906 -26.632812 13.640625 -26.65625 L 13.640625 -27.4375 C 14.109375 -27.40625 14.691406 -27.375 15.390625 -27.34375 C 16.085938 -27.320312 16.757812 -27.3125 17.40625 -27.3125 C 18.40625 -27.3125 19.34375 -27.320312 20.21875 -27.34375 C 21.101562 -27.375 21.816406 -27.40625 22.359375 -27.4375 L 22.359375 -26.65625 C 21.585938 -26.632812 20.972656 -26.554688 20.515625 -26.421875 C 20.066406 -26.296875 19.804688 -26.015625 19.734375 -25.578125 C 19.671875 -25.140625 19.796875 -24.414062 20.109375 -23.40625 L 25.890625 -5.546875 L 25.34375 -5.078125 L 30.453125 -21.15625 C 30.921875 -22.570312 31.132812 -23.675781 31.09375 -24.46875 C 31.050781 -25.257812 30.757812 -25.816406 30.21875 -26.140625 C 29.675781 -26.460938 28.863281 -26.632812 27.78125 -26.65625 L 27.78125 -27.4375 C 28.53125 -27.40625 29.289062 -27.375 30.0625 -27.34375 C 30.84375 -27.320312 31.566406 -27.3125 32.234375 -27.3125 C 32.910156 -27.3125 33.46875 -27.320312 33.90625 -27.34375 C 34.34375 -27.375 34.753906 -27.40625 35.140625 -27.4375 Z M 8.0625 -27.4375 L 8.0625 -26.65625 C 7.382812 -26.601562 6.894531 -26.472656 6.59375 -26.265625 C 6.300781 -26.066406 6.160156 -25.738281 6.171875 -25.28125 C 6.191406 -24.832031 6.332031 -24.207031 6.59375 -23.40625 L 12.59375 -5.078125 L 11.625 -4.109375 L 17.046875 -21.421875 L 17.625 -20.5 L 11.234375 0.1875 C 11.179688 0.1875 11.128906 0.1875 11.078125 0.1875 C 11.023438 0.1875 10.972656 0.1875 10.921875 0.1875 C 10.867188 0.1875 10.816406 0.1875 10.765625 0.1875 C 10.710938 0.1875 10.664062 0.1875 10.625 0.1875 L 2.40625 -24.1875 C 2.070312 -25.1875 1.644531 -25.84375 1.125 -26.15625 C 0.601562 -26.46875 0.136719 -26.632812 -0.265625 -26.65625 L -0.265625 -27.4375 C 0.242188 -27.40625 0.878906 -27.375 1.640625 -27.34375 C 2.410156 -27.320312 3.15625 -27.3125 3.875 -27.3125 C 4.726562 -27.3125 5.519531 -27.320312 6.25 -27.34375 C 6.988281 -27.375 7.59375 -27.40625 8.0625 -27.4375 Z M 8.0625 -27.4375 "/></g></g></g><g fill="#f6f6f6" fill-opacity="1"><g transform="translate(177.860268, 42.875637)"><g><path d="M 22.9375 -27.4375 C 22.832031 -26.457031 22.757812 -25.507812 22.71875 -24.59375 C 22.6875 -23.675781 22.671875 -22.96875 22.671875 -22.46875 C 22.671875 -21.851562 22.679688 -21.273438 22.703125 -20.734375 C 22.734375 -20.191406 22.757812 -19.710938 22.78125 -19.296875 L 21.890625 -19.296875 C 21.710938 -21.109375 21.46875 -22.535156 21.15625 -23.578125 C 20.84375 -24.628906 20.300781 -25.382812 19.53125 -25.84375 C 18.757812 -26.3125 17.554688 -26.546875 15.921875 -26.546875 L 13.828125 -26.546875 L 13.828125 -4.5 C 13.828125 -3.457031 13.925781 -2.675781 14.125 -2.15625 C 14.320312 -1.644531 14.703125 -1.300781 15.265625 -1.125 C 15.835938 -0.945312 16.664062 -0.832031 17.75 -0.78125 L 17.75 0 C 17.070312 -0.0507812 16.21875 -0.0820312 15.1875 -0.09375 C 14.15625 -0.101562 13.109375 -0.109375 12.046875 -0.109375 C 10.890625 -0.109375 9.800781 -0.101562 8.78125 -0.09375 C 7.757812 -0.0820312 6.9375 -0.0507812 6.3125 0 L 6.3125 -0.78125 C 7.394531 -0.832031 8.222656 -0.945312 8.796875 -1.125 C 9.367188 -1.300781 9.75 -1.644531 9.9375 -2.15625 C 10.132812 -2.675781 10.234375 -3.457031 10.234375 -4.5 L 10.234375 -26.546875 L 8.140625 -26.546875 C 6.535156 -26.546875 5.335938 -26.3125 4.546875 -25.84375 C 3.765625 -25.382812 3.21875 -24.628906 2.90625 -23.578125 C 2.59375 -22.535156 2.347656 -21.109375 2.171875 -19.296875 L 1.28125 -19.296875 C 1.332031 -19.710938 1.363281 -20.191406 1.375 -20.734375 C 1.382812 -21.273438 1.390625 -21.851562 1.390625 -22.46875 C 1.390625 -22.96875 1.367188 -23.675781 1.328125 -24.59375 C 1.296875 -25.507812 1.226562 -26.457031 1.125 -27.4375 C 2.207031 -27.40625 3.390625 -27.375 4.671875 -27.34375 C 5.953125 -27.320312 7.238281 -27.3125 8.53125 -27.3125 C 9.820312 -27.3125 10.992188 -27.3125 12.046875 -27.3125 C 13.109375 -27.3125 14.273438 -27.3125 15.546875 -27.3125 C 16.828125 -27.3125 18.113281 -27.320312 19.40625 -27.34375 C 20.695312 -27.375 21.875 -27.40625 22.9375 -27.4375 Z M 22.9375 -27.4375 "/></g></g></g><g fill="#f6f6f6" fill-opacity="1"><g transform="translate(201.919158, 42.875637)"><g><path d="M 17.828125 0 L 17.828125 -0.78125 C 18.703125 -0.832031 19.363281 -0.929688 19.8125 -1.078125 C 20.269531 -1.234375 20.578125 -1.546875 20.734375 -2.015625 C 20.890625 -2.484375 20.96875 -3.179688 20.96875 -4.109375 L 20.96875 -23.328125 C 20.96875 -24.285156 20.890625 -24.988281 20.734375 -25.4375 C 20.578125 -25.894531 20.269531 -26.207031 19.8125 -26.375 C 19.363281 -26.539062 18.703125 -26.632812 17.828125 -26.65625 L 17.828125 -27.4375 C 18.421875 -27.40625 19.164062 -27.375 20.0625 -27.34375 C 20.96875 -27.320312 21.863281 -27.3125 22.75 -27.3125 C 23.75 -27.3125 24.6875 -27.320312 25.5625 -27.34375 C 26.445312 -27.375 27.160156 -27.40625 27.703125 -27.4375 L 27.703125 -26.65625 C 26.828125 -26.632812 26.160156 -26.539062 25.703125 -26.375 C 25.253906 -26.207031 24.953125 -25.894531 24.796875 -25.4375 C 24.640625 -24.988281 24.5625 -24.285156 24.5625 -23.328125 L 24.5625 -4.109375 C 24.5625 -3.179688 24.640625 -2.484375 24.796875 -2.015625 C 24.953125 -1.546875 25.253906 -1.234375 25.703125 -1.078125 C 26.160156 -0.929688 26.828125 -0.832031 27.703125 -0.78125 L 27.703125 0 C 27.160156 -0.0507812 26.445312 -0.0820312 25.5625 -0.09375 C 24.6875 -0.101562 23.75 -0.109375 22.75 -0.109375 C 21.863281 -0.109375 20.96875 -0.101562 20.0625 -0.09375 C 19.164062 -0.0820312 18.421875 -0.0507812 17.828125 0 Z M 1.625 0 L 1.625 -0.78125 C 2.5 -0.832031 3.160156 -0.929688 3.609375 -1.078125 C 4.066406 -1.234375 4.375 -1.546875 4.53125 -2.015625 C 4.6875 -2.484375 4.765625 -3.179688 4.765625 -4.109375 L 4.765625 -23.328125 C 4.765625 -24.285156 4.6875 -24.988281 4.53125 -25.4375 C 4.375 -25.894531 4.066406 -26.207031 3.609375 -26.375 C 3.160156 -26.539062 2.5 -26.632812 1.625 -26.65625 L 1.625 -27.4375 C 2.164062 -27.40625 2.875 -27.375 3.75 -27.34375 C 4.632812 -27.320312 5.582031 -27.3125 6.59375 -27.3125 C 7.488281 -27.3125 8.382812 -27.320312 9.28125 -27.34375 C 10.175781 -27.375 10.921875 -27.40625 11.515625 -27.4375 L 11.515625 -26.65625 C 10.628906 -26.632812 9.957031 -26.539062 9.5 -26.375 C 9.050781 -26.207031 8.75 -25.894531 8.59375 -25.4375 C 8.445312 -24.988281 8.375 -24.285156 8.375 -23.328125 L 8.375 -4.109375 C 8.375 -3.179688 8.445312 -2.484375 8.59375 -2.015625 C 8.75 -1.546875 9.050781 -1.234375 9.5 -1.078125 C 9.957031 -0.929688 10.628906 -0.832031 11.515625 -0.78125 L 11.515625 0 C 10.921875 -0.0507812 10.175781 -0.0820312 9.28125 -0.09375 C 8.382812 -0.101562 7.488281 -0.109375 6.59375 -0.109375 C 5.582031 -0.109375 4.632812 -0.101562 3.75 -0.09375 C 2.875 -0.0820312 2.164062 -0.0507812 1.625 0 Z M 7.015625 -13.40625 L 7.015625 -14.1875 L 22.3125 -14.1875 L 22.3125 -13.40625 Z M 7.015625 -13.40625 "/></g></g></g><g fill="#f6f6f6" fill-opacity="1"><g transform="translate(231.246999, 42.875637)"><g><path d="M 4.875 -4.421875 C 5.550781 -4.421875 6.132812 -4.171875 6.625 -3.671875 C 7.113281 -3.179688 7.359375 -2.601562 7.359375 -1.9375 C 7.359375 -1.269531 7.113281 -0.6875 6.625 -0.1875 C 6.132812 0.300781 5.550781 0.546875 4.875 0.546875 C 4.207031 0.546875 3.628906 0.300781 3.140625 -0.1875 C 2.648438 -0.6875 2.40625 -1.269531 2.40625 -1.9375 C 2.40625 -2.601562 2.648438 -3.179688 3.140625 -3.671875 C 3.628906 -4.171875 4.207031 -4.421875 4.875 -4.421875 Z M 4.875 -4.421875 "/></g></g></g><g fill="#f6f6f6" fill-opacity="1"><g transform="translate(241.010022, 42.875637)"><g/></g></g><g fill="#f6f6f6" fill-opacity="1"><g transform="translate(250.656819, 42.875637)"><g><path d="M 14.375 -27.984375 C 16.082031 -27.984375 17.484375 -27.726562 18.578125 -27.21875 C 19.679688 -26.71875 20.65625 -26.128906 21.5 -25.453125 C 22.019531 -25.066406 22.414062 -25.019531 22.6875 -25.3125 C 22.957031 -25.613281 23.144531 -26.320312 23.25 -27.4375 L 24.140625 -27.4375 C 24.085938 -26.476562 24.046875 -25.3125 24.015625 -23.9375 C 23.992188 -22.570312 23.984375 -20.765625 23.984375 -18.515625 L 23.09375 -18.515625 C 22.914062 -19.628906 22.75 -20.515625 22.59375 -21.171875 C 22.4375 -21.835938 22.25 -22.398438 22.03125 -22.859375 C 21.8125 -23.328125 21.519531 -23.789062 21.15625 -24.25 C 20.351562 -25.3125 19.34375 -26.082031 18.125 -26.5625 C 16.914062 -27.039062 15.640625 -27.28125 14.296875 -27.28125 C 13.035156 -27.28125 11.894531 -26.960938 10.875 -26.328125 C 9.851562 -25.691406 8.972656 -24.78125 8.234375 -23.59375 C 7.492188 -22.40625 6.921875 -20.972656 6.515625 -19.296875 C 6.117188 -17.617188 5.921875 -15.734375 5.921875 -13.640625 C 5.921875 -11.472656 6.140625 -9.554688 6.578125 -7.890625 C 7.023438 -6.222656 7.640625 -4.816406 8.421875 -3.671875 C 9.210938 -2.535156 10.144531 -1.675781 11.21875 -1.09375 C 12.289062 -0.519531 13.445312 -0.234375 14.6875 -0.234375 C 15.851562 -0.234375 17.066406 -0.460938 18.328125 -0.921875 C 19.597656 -1.390625 20.59375 -2.140625 21.3125 -3.171875 C 21.882812 -3.921875 22.28125 -4.734375 22.5 -5.609375 C 22.71875 -6.492188 22.914062 -7.722656 23.09375 -9.296875 L 23.984375 -9.296875 C 23.984375 -6.953125 23.992188 -5.0625 24.015625 -3.625 C 24.046875 -2.1875 24.085938 -0.976562 24.140625 0 L 23.25 0 C 23.144531 -1.113281 22.96875 -1.8125 22.71875 -2.09375 C 22.476562 -2.375 22.070312 -2.332031 21.5 -1.96875 C 20.550781 -1.300781 19.539062 -0.710938 18.46875 -0.203125 C 17.394531 0.296875 16.019531 0.546875 14.34375 0.546875 C 11.882812 0.546875 9.726562 -0.0078125 7.875 -1.125 C 6.03125 -2.238281 4.597656 -3.835938 3.578125 -5.921875 C 2.554688 -8.015625 2.046875 -10.535156 2.046875 -13.484375 C 2.046875 -16.378906 2.578125 -18.910156 3.640625 -21.078125 C 4.703125 -23.242188 6.15625 -24.9375 8 -26.15625 C 9.84375 -27.375 11.96875 -27.984375 14.375 -27.984375 Z M 14.375 -27.984375 "/></g></g></g><g fill="#f6f6f6" fill-opacity="1"><g transform="translate(277.311458, 42.875637)"><g><path d="M 14.375 -27.984375 C 16.832031 -27.984375 18.984375 -27.425781 20.828125 -26.3125 C 22.671875 -25.195312 24.101562 -23.597656 25.125 -21.515625 C 26.144531 -19.441406 26.65625 -16.921875 26.65625 -13.953125 C 26.65625 -11.054688 26.128906 -8.519531 25.078125 -6.34375 C 24.035156 -4.175781 22.582031 -2.484375 20.71875 -1.265625 C 18.863281 -0.0546875 16.738281 0.546875 14.34375 0.546875 C 11.882812 0.546875 9.726562 -0.0078125 7.875 -1.125 C 6.03125 -2.238281 4.597656 -3.835938 3.578125 -5.921875 C 2.554688 -8.015625 2.046875 -10.535156 2.046875 -13.484375 C 2.046875 -16.378906 2.578125 -18.910156 3.640625 -21.078125 C 4.703125 -23.242188 6.15625 -24.9375 8 -26.15625 C 9.84375 -27.375 11.96875 -27.984375 14.375 -27.984375 Z M 14.21875 -27.28125 C 12.539062 -27.28125 11.082031 -26.695312 9.84375 -25.53125 C 8.601562 -24.375 7.640625 -22.773438 6.953125 -20.734375 C 6.265625 -18.691406 5.921875 -16.328125 5.921875 -13.640625 C 5.921875 -10.898438 6.300781 -8.515625 7.0625 -6.484375 C 7.832031 -4.460938 8.867188 -2.898438 10.171875 -1.796875 C 11.472656 -0.703125 12.914062 -0.15625 14.5 -0.15625 C 16.175781 -0.15625 17.632812 -0.734375 18.875 -1.890625 C 20.113281 -3.054688 21.070312 -4.664062 21.75 -6.71875 C 22.4375 -8.769531 22.78125 -11.128906 22.78125 -13.796875 C 22.78125 -16.554688 22.398438 -18.941406 21.640625 -20.953125 C 20.878906 -22.972656 19.851562 -24.53125 18.5625 -25.625 C 17.269531 -26.726562 15.820312 -27.28125 14.21875 -27.28125 Z M 14.21875 -27.28125 "/></g></g></g><g fill="#f6f6f6" fill-opacity="1"><g transform="translate(305.709444, 42.875637)"><g><path d="M 25.96875 -27.4375 L 25.96875 -26.65625 C 25.082031 -26.632812 24.410156 -26.503906 23.953125 -26.265625 C 23.503906 -26.035156 23.203125 -25.660156 23.046875 -25.140625 C 22.898438 -24.628906 22.828125 -23.894531 22.828125 -22.9375 L 22.828125 0.1875 C 22.671875 0.1875 22.519531 0.1875 22.375 0.1875 C 22.238281 0.1875 22.09375 0.1875 21.9375 0.1875 L 5.65625 -24.953125 L 5.65625 -4.5 C 5.65625 -3.5625 5.738281 -2.828125 5.90625 -2.296875 C 6.070312 -1.773438 6.40625 -1.40625 6.90625 -1.1875 C 7.414062 -0.96875 8.175781 -0.832031 9.1875 -0.78125 L 9.1875 0 C 8.71875 -0.0507812 8.109375 -0.0820312 7.359375 -0.09375 C 6.609375 -0.101562 5.898438 -0.109375 5.234375 -0.109375 C 4.585938 -0.109375 3.929688 -0.101562 3.265625 -0.09375 C 2.609375 -0.0820312 2.0625 -0.0507812 1.625 0 L 1.625 -0.78125 C 2.5 -0.832031 3.160156 -0.96875 3.609375 -1.1875 C 4.066406 -1.40625 4.375 -1.773438 4.53125 -2.296875 C 4.6875 -2.828125 4.765625 -3.5625 4.765625 -4.5 L 4.765625 -23.328125 C 4.765625 -24.285156 4.6875 -24.988281 4.53125 -25.4375 C 4.375 -25.894531 4.066406 -26.207031 3.609375 -26.375 C 3.160156 -26.539062 2.5 -26.632812 1.625 -26.65625 L 1.625 -27.4375 C 2.0625 -27.40625 2.609375 -27.375 3.265625 -27.34375 C 3.929688 -27.320312 4.585938 -27.3125 5.234375 -27.3125 C 5.796875 -27.3125 6.335938 -27.320312 6.859375 -27.34375 C 7.378906 -27.375 7.84375 -27.40625 8.25 -27.4375 L 21.9375 -6.359375 L 21.9375 -22.9375 C 21.9375 -23.894531 21.847656 -24.628906 21.671875 -25.140625 C 21.503906 -25.660156 21.171875 -26.035156 20.671875 -26.265625 C 20.171875 -26.503906 19.414062 -26.632812 18.40625 -26.65625 L 18.40625 -27.4375 C 18.875 -27.40625 19.488281 -27.375 20.25 -27.34375 C 21.007812 -27.320312 21.710938 -27.3125 22.359375 -27.3125 C 23.023438 -27.3125 23.6875 -27.320312 24.34375 -27.34375 C 25.007812 -27.375 25.550781 -27.40625 25.96875 -27.4375 Z M 25.96875 -27.4375 "/></g></g></g><g fill="#f6f6f6" fill-opacity="1"><g transform="translate(333.06144, 42.875637)"><g><path d="M 9.921875 -27.859375 C 11.210938 -27.859375 12.191406 -27.707031 12.859375 -27.40625 C 13.535156 -27.113281 14.128906 -26.785156 14.640625 -26.421875 C 14.953125 -26.242188 15.203125 -26.109375 15.390625 -26.015625 C 15.585938 -25.929688 15.78125 -25.890625 15.96875 -25.890625 C 16.226562 -25.890625 16.414062 -26.03125 16.53125 -26.3125 C 16.644531 -26.59375 16.738281 -27.019531 16.8125 -27.59375 L 17.703125 -27.59375 C 17.679688 -27.15625 17.648438 -26.628906 17.609375 -26.015625 C 17.566406 -25.410156 17.539062 -24.609375 17.53125 -23.609375 C 17.519531 -22.617188 17.515625 -21.3125 17.515625 -19.6875 L 16.625 -19.6875 C 16.539062 -20.925781 16.265625 -22.113281 15.796875 -23.25 C 15.335938 -24.382812 14.660156 -25.3125 13.765625 -26.03125 C 12.878906 -26.757812 11.710938 -27.125 10.265625 -27.125 C 8.898438 -27.125 7.769531 -26.707031 6.875 -25.875 C 5.988281 -25.050781 5.546875 -23.96875 5.546875 -22.625 C 5.546875 -21.46875 5.84375 -20.492188 6.4375 -19.703125 C 7.03125 -18.910156 7.820312 -18.195312 8.8125 -17.5625 C 9.8125 -16.9375 10.890625 -16.257812 12.046875 -15.53125 C 13.390625 -14.707031 14.582031 -13.890625 15.625 -13.078125 C 16.675781 -12.265625 17.503906 -11.363281 18.109375 -10.375 C 18.722656 -9.394531 19.03125 -8.207031 19.03125 -6.8125 C 19.03125 -5.164062 18.65625 -3.796875 17.90625 -2.703125 C 17.15625 -1.617188 16.160156 -0.804688 14.921875 -0.265625 C 13.679688 0.273438 12.3125 0.546875 10.8125 0.546875 C 9.4375 0.546875 8.347656 0.390625 7.546875 0.078125 C 6.753906 -0.230469 6.070312 -0.554688 5.5 -0.890625 C 4.9375 -1.253906 4.5 -1.4375 4.1875 -1.4375 C 3.925781 -1.4375 3.738281 -1.289062 3.625 -1 C 3.507812 -0.71875 3.410156 -0.292969 3.328125 0.265625 L 2.4375 0.265625 C 2.488281 -0.273438 2.519531 -0.910156 2.53125 -1.640625 C 2.550781 -2.378906 2.566406 -3.34375 2.578125 -4.53125 C 2.585938 -5.71875 2.59375 -7.21875 2.59375 -9.03125 L 3.484375 -9.03125 C 3.585938 -7.476562 3.878906 -6.03125 4.359375 -4.6875 C 4.835938 -3.34375 5.570312 -2.265625 6.5625 -1.453125 C 7.5625 -0.640625 8.890625 -0.234375 10.546875 -0.234375 C 11.390625 -0.234375 12.191406 -0.40625 12.953125 -0.75 C 13.722656 -1.101562 14.351562 -1.660156 14.84375 -2.421875 C 15.332031 -3.179688 15.578125 -4.171875 15.578125 -5.390625 C 15.578125 -6.441406 15.320312 -7.363281 14.8125 -8.15625 C 14.3125 -8.945312 13.609375 -9.679688 12.703125 -10.359375 C 11.804688 -11.046875 10.75 -11.753906 9.53125 -12.484375 C 8.320312 -13.222656 7.1875 -13.976562 6.125 -14.75 C 5.0625 -15.53125 4.210938 -16.429688 3.578125 -17.453125 C 2.953125 -18.472656 2.640625 -19.707031 2.640625 -21.15625 C 2.640625 -22.675781 2.976562 -23.929688 3.65625 -24.921875 C 4.34375 -25.921875 5.238281 -26.660156 6.34375 -27.140625 C 7.457031 -27.617188 8.648438 -27.859375 9.921875 -27.859375 Z M 9.921875 -27.859375 "/></g></g></g><g fill="#f6f6f6" fill-opacity="1"><g transform="translate(353.982224, 42.875637)"><g><path d="M 25.375 -27.4375 L 25.375 -26.65625 C 24.5 -26.632812 23.832031 -26.503906 23.375 -26.265625 C 22.925781 -26.035156 22.625 -25.660156 22.46875 -25.140625 C 22.320312 -24.628906 22.25 -23.894531 22.25 -22.9375 L 22.25 -11.28125 C 22.25 -9.46875 22.128906 -7.890625 21.890625 -6.546875 C 21.660156 -5.203125 21.25 -4.039062 20.65625 -3.0625 C 20.007812 -1.976562 19.066406 -1.101562 17.828125 -0.4375 C 16.585938 0.214844 15.164062 0.546875 13.5625 0.546875 C 12.320312 0.546875 11.140625 0.394531 10.015625 0.09375 C 8.890625 -0.195312 7.898438 -0.742188 7.046875 -1.546875 C 6.296875 -2.273438 5.707031 -3.035156 5.28125 -3.828125 C 4.863281 -4.628906 4.578125 -5.613281 4.421875 -6.78125 C 4.265625 -7.945312 4.1875 -9.40625 4.1875 -11.15625 L 4.1875 -23.328125 C 4.1875 -24.285156 4.109375 -24.988281 3.953125 -25.4375 C 3.796875 -25.894531 3.488281 -26.207031 3.03125 -26.375 C 2.582031 -26.539062 1.921875 -26.632812 1.046875 -26.65625 L 1.046875 -27.4375 C 1.585938 -27.40625 2.296875 -27.375 3.171875 -27.34375 C 4.054688 -27.320312 5 -27.3125 6 -27.3125 C 6.90625 -27.3125 7.800781 -27.320312 8.6875 -27.34375 C 9.582031 -27.375 10.328125 -27.40625 10.921875 -27.4375 L 10.921875 -26.65625 C 10.046875 -26.632812 9.378906 -26.539062 8.921875 -26.375 C 8.472656 -26.207031 8.171875 -25.894531 8.015625 -25.4375 C 7.859375 -24.988281 7.78125 -24.285156 7.78125 -23.328125 L 7.78125 -10.5 C 7.78125 -9.1875 7.84375 -7.941406 7.96875 -6.765625 C 8.101562 -5.585938 8.367188 -4.550781 8.765625 -3.65625 C 9.171875 -2.769531 9.785156 -2.070312 10.609375 -1.5625 C 11.441406 -1.0625 12.539062 -0.8125 13.90625 -0.8125 C 15.875 -0.8125 17.394531 -1.242188 18.46875 -2.109375 C 19.539062 -2.972656 20.285156 -4.164062 20.703125 -5.6875 C 21.128906 -7.21875 21.34375 -8.9375 21.34375 -10.84375 L 21.34375 -22.9375 C 21.34375 -23.894531 21.234375 -24.628906 21.015625 -25.140625 C 20.796875 -25.660156 20.425781 -26.035156 19.90625 -26.265625 C 19.394531 -26.503906 18.703125 -26.632812 17.828125 -26.65625 L 17.828125 -27.4375 C 18.285156 -27.40625 18.894531 -27.375 19.65625 -27.34375 C 20.425781 -27.320312 21.132812 -27.3125 21.78125 -27.3125 C 22.445312 -27.3125 23.109375 -27.320312 23.765625 -27.34375 C 24.429688 -27.375 24.96875 -27.40625 25.375 -27.4375 Z M 25.375 -27.4375 "/></g></g></g><g fill="#f6f6f6" fill-opacity="1"><g transform="translate(380.404387, 42.875637)"><g><path d="M 11.515625 -27.4375 L 11.515625 -26.65625 C 10.628906 -26.632812 9.957031 -26.539062 9.5 -26.375 C 9.050781 -26.207031 8.75 -25.894531 8.59375 -25.4375 C 8.445312 -24.988281 8.375 -24.285156 8.375 -23.328125 L 8.375 -4.109375 C 8.375 -3.179688 8.445312 -2.484375 8.59375 -2.015625 C 8.75 -1.546875 9.050781 -1.238281 9.5 -1.09375 C 9.957031 -0.957031 10.628906 -0.890625 11.515625 -0.890625 L 14.34375 -0.890625 C 15.550781 -0.890625 16.535156 -1.019531 17.296875 -1.28125 C 18.054688 -1.539062 18.660156 -1.945312 19.109375 -2.5 C 19.566406 -3.050781 19.910156 -3.789062 20.140625 -4.71875 C 20.378906 -5.65625 20.5625 -6.796875 20.6875 -8.140625 L 21.578125 -8.140625 C 21.503906 -7.335938 21.46875 -6.273438 21.46875 -4.953125 C 21.46875 -4.460938 21.484375 -3.757812 21.515625 -2.84375 C 21.554688 -1.925781 21.628906 -0.976562 21.734375 0 C 20.421875 -0.0507812 18.9375 -0.0820312 17.28125 -0.09375 C 15.625 -0.101562 14.148438 -0.109375 12.859375 -0.109375 C 12.296875 -0.109375 11.566406 -0.109375 10.671875 -0.109375 C 9.785156 -0.109375 8.820312 -0.101562 7.78125 -0.09375 C 6.75 -0.0820312 5.703125 -0.0664062 4.640625 -0.046875 C 3.585938 -0.0351562 2.582031 -0.0195312 1.625 0 L 1.625 -0.78125 C 2.5 -0.832031 3.160156 -0.929688 3.609375 -1.078125 C 4.066406 -1.234375 4.375 -1.546875 4.53125 -2.015625 C 4.6875 -2.484375 4.765625 -3.179688 4.765625 -4.109375 L 4.765625 -23.328125 C 4.765625 -24.285156 4.6875 -24.988281 4.53125 -25.4375 C 4.375 -25.894531 4.066406 -26.207031 3.609375 -26.375 C 3.160156 -26.539062 2.5 -26.632812 1.625 -26.65625 L 1.625 -27.4375 C 2.164062 -27.40625 2.875 -27.375 3.75 -27.34375 C 4.632812 -27.320312 5.582031 -27.3125 6.59375 -27.3125 C 7.488281 -27.3125 8.382812 -27.320312 9.28125 -27.34375 C 10.175781 -27.375 10.921875 -27.40625 11.515625 -27.4375 Z M 11.515625 -27.4375 "/></g></g></g><g fill="#f6f6f6" fill-opacity="1"><g transform="translate(400.472654, 42.875637)"><g><path d="M 22.9375 -27.4375 C 22.832031 -26.457031 22.757812 -25.507812 22.71875 -24.59375 C 22.6875 -23.675781 22.671875 -22.96875 22.671875 -22.46875 C 22.671875 -21.851562 22.679688 -21.273438 22.703125 -20.734375 C 22.734375 -20.191406 22.757812 -19.710938 22.78125 -19.296875 L 21.890625 -19.296875 C 21.710938 -21.109375 21.46875 -22.535156 21.15625 -23.578125 C 20.84375 -24.628906 20.300781 -25.382812 19.53125 -25.84375 C 18.757812 -26.3125 17.554688 -26.546875 15.921875 -26.546875 L 13.828125 -26.546875 L 13.828125 -4.5 C 13.828125 -3.457031 13.925781 -2.675781 14.125 -2.15625 C 14.320312 -1.644531 14.703125 -1.300781 15.265625 -1.125 C 15.835938 -0.945312 16.664062 -0.832031 17.75 -0.78125 L 17.75 0 C 17.070312 -0.0507812 16.21875 -0.0820312 15.1875 -0.09375 C 14.15625 -0.101562 13.109375 -0.109375 12.046875 -0.109375 C 10.890625 -0.109375 9.800781 -0.101562 8.78125 -0.09375 C 7.757812 -0.0820312 6.9375 -0.0507812 6.3125 0 L 6.3125 -0.78125 C 7.394531 -0.832031 8.222656 -0.945312 8.796875 -1.125 C 9.367188 -1.300781 9.75 -1.644531 9.9375 -2.15625 C 10.132812 -2.675781 10.234375 -3.457031 10.234375 -4.5 L 10.234375 -26.546875 L 8.140625 -26.546875 C 6.535156 -26.546875 5.335938 -26.3125 4.546875 -25.84375 C 3.765625 -25.382812 3.21875 -24.628906 2.90625 -23.578125 C 2.59375 -22.535156 2.347656 -21.109375 2.171875 -19.296875 L 1.28125 -19.296875 C 1.332031 -19.710938 1.363281 -20.191406 1.375 -20.734375 C 1.382812 -21.273438 1.390625 -21.851562 1.390625 -22.46875 C 1.390625 -22.96875 1.367188 -23.675781 1.328125 -24.59375 C 1.296875 -25.507812 1.226562 -26.457031 1.125 -27.4375 C 2.207031 -27.40625 3.390625 -27.375 4.671875 -27.34375 C 5.953125 -27.320312 7.238281 -27.3125 8.53125 -27.3125 C 9.820312 -27.3125 10.992188 -27.3125 12.046875 -27.3125 C 13.109375 -27.3125 14.273438 -27.3125 15.546875 -27.3125 C 16.828125 -27.3125 18.113281 -27.320312 19.40625 -27.34375 C 20.695312 -27.375 21.875 -27.40625 22.9375 -27.4375 Z M 22.9375 -27.4375 "/></g></g></g><g fill="#f6f6f6" fill-opacity="1"><g transform="translate(424.531521, 42.875637)"><g><path d="M 11.515625 -27.4375 L 11.515625 -26.65625 C 10.628906 -26.632812 9.957031 -26.539062 9.5 -26.375 C 9.050781 -26.207031 8.75 -25.894531 8.59375 -25.4375 C 8.445312 -24.988281 8.375 -24.285156 8.375 -23.328125 L 8.375 -4.109375 C 8.375 -3.179688 8.445312 -2.484375 8.59375 -2.015625 C 8.75 -1.546875 9.050781 -1.234375 9.5 -1.078125 C 9.957031 -0.929688 10.628906 -0.832031 11.515625 -0.78125 L 11.515625 0 C 10.921875 -0.0507812 10.175781 -0.0820312 9.28125 -0.09375 C 8.382812 -0.101562 7.488281 -0.109375 6.59375 -0.109375 C 5.582031 -0.109375 4.632812 -0.101562 3.75 -0.09375 C 2.875 -0.0820312 2.164062 -0.0507812 1.625 0 L 1.625 -0.78125 C 2.5 -0.832031 3.160156 -0.929688 3.609375 -1.078125 C 4.066406 -1.234375 4.375 -1.546875 4.53125 -2.015625 C 4.6875 -2.484375 4.765625 -3.179688 4.765625 -4.109375 L 4.765625 -23.328125 C 4.765625 -24.285156 4.6875 -24.988281 4.53125 -25.4375 C 4.375 -25.894531 4.066406 -26.207031 3.609375 -26.375 C 3.160156 -26.539062 2.5 -26.632812 1.625 -26.65625 L 1.625 -27.4375 C 2.164062 -27.40625 2.875 -27.375 3.75 -27.34375 C 4.632812 -27.320312 5.582031 -27.3125 6.59375 -27.3125 C 7.488281 -27.3125 8.382812 -27.320312 9.28125 -27.34375 C 10.175781 -27.375 10.921875 -27.40625 11.515625 -27.4375 Z M 11.515625 -27.4375 "/></g></g></g><g fill="#f6f6f6" fill-opacity="1"><g transform="translate(437.665127, 42.875637)"><g><path d="M 25.96875 -27.4375 L 25.96875 -26.65625 C 25.082031 -26.632812 24.410156 -26.503906 23.953125 -26.265625 C 23.503906 -26.035156 23.203125 -25.660156 23.046875 -25.140625 C 22.898438 -24.628906 22.828125 -23.894531 22.828125 -22.9375 L 22.828125 0.1875 C 22.671875 0.1875 22.519531 0.1875 22.375 0.1875 C 22.238281 0.1875 22.09375 0.1875 21.9375 0.1875 L 5.65625 -24.953125 L 5.65625 -4.5 C 5.65625 -3.5625 5.738281 -2.828125 5.90625 -2.296875 C 6.070312 -1.773438 6.40625 -1.40625 6.90625 -1.1875 C 7.414062 -0.96875 8.175781 -0.832031 9.1875 -0.78125 L 9.1875 0 C 8.71875 -0.0507812 8.109375 -0.0820312 7.359375 -0.09375 C 6.609375 -0.101562 5.898438 -0.109375 5.234375 -0.109375 C 4.585938 -0.109375 3.929688 -0.101562 3.265625 -0.09375 C 2.609375 -0.0820312 2.0625 -0.0507812 1.625 0 L 1.625 -0.78125 C 2.5 -0.832031 3.160156 -0.96875 3.609375 -1.1875 C 4.066406 -1.40625 4.375 -1.773438 4.53125 -2.296875 C 4.6875 -2.828125 4.765625 -3.5625 4.765625 -4.5 L 4.765625 -23.328125 C 4.765625 -24.285156 4.6875 -24.988281 4.53125 -25.4375 C 4.375 -25.894531 4.066406 -26.207031 3.609375 -26.375 C 3.160156 -26.539062 2.5 -26.632812 1.625 -26.65625 L 1.625 -27.4375 C 2.0625 -27.40625 2.609375 -27.375 3.265625 -27.34375 C 3.929688 -27.320312 4.585938 -27.3125 5.234375 -27.3125 C 5.796875 -27.3125 6.335938 -27.320312 6.859375 -27.34375 C 7.378906 -27.375 7.84375 -27.40625 8.25 -27.4375 L 21.9375 -6.359375 L 21.9375 -22.9375 C 21.9375 -23.894531 21.847656 -24.628906 21.671875 -25.140625 C 21.503906 -25.660156 21.171875 -26.035156 20.671875 -26.265625 C 20.171875 -26.503906 19.414062 -26.632812 18.40625 -26.65625 L 18.40625 -27.4375 C 18.875 -27.40625 19.488281 -27.375 20.25 -27.34375 C 21.007812 -27.320312 21.710938 -27.3125 22.359375 -27.3125 C 23.023438 -27.3125 23.6875 -27.320312 24.34375 -27.34375 C 25.007812 -27.375 25.550781 -27.40625 25.96875 -27.4375 Z M 25.96875 -27.4375 "/></g></g></g><g fill="#f6f6f6" fill-opacity="1"><g transform="translate(464.745921, 42.875637)"><g><path d="M 14.5625 -27.984375 C 16.25 -27.984375 17.609375 -27.726562 18.640625 -27.21875 C 19.671875 -26.71875 20.640625 -26.128906 21.546875 -25.453125 C 21.878906 -25.203125 22.132812 -25.078125 22.3125 -25.078125 C 22.8125 -25.078125 23.132812 -25.863281 23.28125 -27.4375 L 24.1875 -27.4375 C 24.132812 -26.476562 24.09375 -25.3125 24.0625 -23.9375 C 24.039062 -22.570312 24.03125 -20.765625 24.03125 -18.515625 L 23.140625 -18.515625 C 22.953125 -19.609375 22.726562 -20.65625 22.46875 -21.65625 C 22.21875 -22.664062 21.796875 -23.53125 21.203125 -24.25 C 20.453125 -25.207031 19.46875 -25.953125 18.25 -26.484375 C 17.039062 -27.015625 15.789062 -27.28125 14.5 -27.28125 C 13.207031 -27.28125 12.035156 -26.960938 10.984375 -26.328125 C 9.941406 -25.691406 9.046875 -24.78125 8.296875 -23.59375 C 7.546875 -22.40625 6.96875 -20.976562 6.5625 -19.3125 C 6.164062 -17.644531 5.96875 -15.765625 5.96875 -13.671875 C 5.96875 -9.023438 6.71875 -5.625 8.21875 -3.46875 C 9.71875 -1.3125 12.039062 -0.234375 15.1875 -0.234375 C 16.113281 -0.234375 16.921875 -0.367188 17.609375 -0.640625 C 18.296875 -0.910156 18.832031 -1.175781 19.21875 -1.4375 C 19.707031 -1.769531 20.015625 -2.082031 20.140625 -2.375 C 20.273438 -2.675781 20.34375 -3.070312 20.34375 -3.5625 L 20.34375 -7.28125 C 20.34375 -8.34375 20.238281 -9.128906 20.03125 -9.640625 C 19.820312 -10.160156 19.441406 -10.507812 18.890625 -10.6875 C 18.335938 -10.875 17.519531 -10.976562 16.4375 -11 L 16.4375 -11.78125 C 16.894531 -11.75 17.429688 -11.726562 18.046875 -11.71875 C 18.671875 -11.707031 19.328125 -11.691406 20.015625 -11.671875 C 20.703125 -11.660156 21.328125 -11.65625 21.890625 -11.65625 C 22.742188 -11.65625 23.507812 -11.664062 24.1875 -11.6875 C 24.875 -11.71875 25.453125 -11.75 25.921875 -11.78125 L 25.921875 -11 C 25.359375 -10.976562 24.929688 -10.890625 24.640625 -10.734375 C 24.359375 -10.578125 24.171875 -10.265625 24.078125 -9.796875 C 23.992188 -9.335938 23.953125 -8.628906 23.953125 -7.671875 L 23.953125 0 L 23.171875 0 C 23.148438 -0.4375 23.050781 -0.910156 22.875 -1.421875 C 22.707031 -1.941406 22.457031 -2.203125 22.125 -2.203125 C 21.96875 -2.203125 21.8125 -2.160156 21.65625 -2.078125 C 21.5 -2.003906 21.226562 -1.828125 20.84375 -1.546875 C 19.988281 -0.898438 19.082031 -0.390625 18.125 -0.015625 C 17.175781 0.359375 16.066406 0.546875 14.796875 0.546875 C 12.140625 0.546875 9.859375 0 7.953125 -1.09375 C 6.054688 -2.195312 4.601562 -3.78125 3.59375 -5.84375 C 2.59375 -7.914062 2.09375 -10.382812 2.09375 -13.25 C 2.09375 -16.269531 2.632812 -18.878906 3.71875 -21.078125 C 4.800781 -23.273438 6.28125 -24.972656 8.15625 -26.171875 C 10.03125 -27.378906 12.164062 -27.984375 14.5625 -27.984375 Z M 14.5625 -27.984375 "/></g></g></g><g fill="#f6f6f6" fill-opacity="1"><g transform="translate(491.981668, 42.875637)"><g><path d="M 4.875 -4.421875 C 5.550781 -4.421875 6.132812 -4.171875 6.625 -3.671875 C 7.113281 -3.179688 7.359375 -2.601562 7.359375 -1.9375 C 7.359375 -1.269531 7.113281 -0.6875 6.625 -0.1875 C 6.132812 0.300781 5.550781 0.546875 4.875 0.546875 C 4.207031 0.546875 3.628906 0.300781 3.140625 -0.1875 C 2.648438 -0.6875 2.40625 -1.269531 2.40625 -1.9375 C 2.40625 -2.601562 2.648438 -3.179688 3.140625 -3.671875 C 3.628906 -4.171875 4.207031 -4.421875 4.875 -4.421875 Z M 4.875 -4.421875 "/></g></g></g><g fill="#f6f6f6" fill-opacity="1"><g transform="translate(501.744714, 42.875637)"><g><path d="M 32.125 -27.4375 L 32.125 -26.65625 C 31.25 -26.632812 30.582031 -26.539062 30.125 -26.375 C 29.675781 -26.207031 29.375 -25.894531 29.21875 -25.4375 C 29.0625 -24.988281 28.984375 -24.285156 28.984375 -23.328125 L 28.984375 -4.109375 C 28.984375 -3.179688 29.0625 -2.484375 29.21875 -2.015625 C 29.375 -1.546875 29.675781 -1.234375 30.125 -1.078125 C 30.582031 -0.929688 31.25 -0.832031 32.125 -0.78125 L 32.125 0 C 31.53125 -0.0507812 30.785156 -0.0820312 29.890625 -0.09375 C 29.003906 -0.101562 28.109375 -0.109375 27.203125 -0.109375 C 26.191406 -0.109375 25.25 -0.101562 24.375 -0.09375 C 23.5 -0.0820312 22.789062 -0.0507812 22.25 0 L 22.25 -0.78125 C 23.125 -0.832031 23.785156 -0.929688 24.234375 -1.078125 C 24.691406 -1.234375 24.992188 -1.546875 25.140625 -2.015625 C 25.296875 -2.484375 25.375 -3.179688 25.375 -4.109375 L 25.375 -25.421875 L 25.53125 -25.296875 L 16.046875 0.1875 L 15.421875 0.1875 L 5.65625 -24.953125 L 5.65625 -4.5 C 5.65625 -3.5625 5.738281 -2.828125 5.90625 -2.296875 C 6.070312 -1.773438 6.40625 -1.40625 6.90625 -1.1875 C 7.414062 -0.96875 8.175781 -0.832031 9.1875 -0.78125 L 9.1875 0 C 8.71875 -0.0507812 8.109375 -0.0820312 7.359375 -0.09375 C 6.609375 -0.101562 5.898438 -0.109375 5.234375 -0.109375 C 4.585938 -0.109375 3.929688 -0.101562 3.265625 -0.09375 C 2.609375 -0.0820312 2.0625 -0.0507812 1.625 0 L 1.625 -0.78125 C 2.5 -0.832031 3.160156 -0.96875 3.609375 -1.1875 C 4.066406 -1.40625 4.375 -1.773438 4.53125 -2.296875 C 4.6875 -2.828125 4.765625 -3.5625 4.765625 -4.5 L 4.765625 -23.328125 C 4.765625 -24.285156 4.6875 -24.988281 4.53125 -25.4375 C 4.375 -25.894531 4.066406 -26.207031 3.609375 -26.375 C 3.160156 -26.539062 2.5 -26.632812 1.625 -26.65625 L 1.625 -27.4375 C 2.0625 -27.40625 2.609375 -27.375 3.265625 -27.34375 C 3.929688 -27.320312 4.585938 -27.3125 5.234375 -27.3125 C 5.796875 -27.3125 6.378906 -27.320312 6.984375 -27.34375 C 7.597656 -27.375 8.113281 -27.40625 8.53125 -27.4375 L 17.328125 -4.265625 L 16.65625 -3.953125 L 25.375 -27.3125 C 25.6875 -27.3125 25.988281 -27.3125 26.28125 -27.3125 C 26.582031 -27.3125 26.890625 -27.3125 27.203125 -27.3125 C 28.109375 -27.3125 29.003906 -27.320312 29.890625 -27.34375 C 30.785156 -27.375 31.53125 -27.40625 32.125 -27.4375 Z M 32.125 -27.4375 "/></g></g></g><g fill="#f6f6f6" fill-opacity="1"><g transform="translate(535.489128, 42.875637)"><g><path d="M 12.515625 -27.625 L 21.96875 -3.25 C 22.351562 -2.269531 22.789062 -1.617188 23.28125 -1.296875 C 23.78125 -0.972656 24.234375 -0.800781 24.640625 -0.78125 L 24.640625 0 C 24.128906 -0.0507812 23.5 -0.0820312 22.75 -0.09375 C 22 -0.101562 21.25 -0.109375 20.5 -0.109375 C 19.488281 -0.109375 18.546875 -0.101562 17.671875 -0.09375 C 16.796875 -0.0820312 16.082031 -0.0507812 15.53125 0 L 15.53125 -0.78125 C 16.851562 -0.832031 17.691406 -1.054688 18.046875 -1.453125 C 18.410156 -1.847656 18.335938 -2.707031 17.828125 -4.03125 L 10.625 -23.28125 L 11.234375 -23.796875 L 4.5 -6.28125 C 4.082031 -5.25 3.832031 -4.375 3.75 -3.65625 C 3.675781 -2.945312 3.75 -2.382812 3.96875 -1.96875 C 4.1875 -1.5625 4.5625 -1.265625 5.09375 -1.078125 C 5.625 -0.898438 6.289062 -0.800781 7.09375 -0.78125 L 7.09375 0 C 6.363281 -0.0507812 5.601562 -0.0820312 4.8125 -0.09375 C 4.03125 -0.101562 3.304688 -0.109375 2.640625 -0.109375 C 1.992188 -0.109375 1.441406 -0.101562 0.984375 -0.09375 C 0.535156 -0.0820312 0.117188 -0.0507812 -0.265625 0 L -0.265625 -0.78125 C 0.242188 -0.90625 0.769531 -1.207031 1.3125 -1.6875 C 1.851562 -2.164062 2.347656 -2.984375 2.796875 -4.140625 L 11.890625 -27.625 C 11.992188 -27.625 12.097656 -27.625 12.203125 -27.625 C 12.304688 -27.625 12.410156 -27.625 12.515625 -27.625 Z M 17.25 -11.15625 L 17.25 -10.390625 L 5.703125 -10.390625 L 6.078125 -11.15625 Z M 17.25 -11.15625 "/></g></g></g><g fill="#f6f6f6" fill-opacity="1"><g transform="translate(559.121818, 42.875637)"><g><path d="M 1.625 -27.4375 C 2.164062 -27.40625 2.875 -27.375 3.75 -27.34375 C 4.632812 -27.320312 5.503906 -27.3125 6.359375 -27.3125 C 7.566406 -27.3125 8.726562 -27.320312 9.84375 -27.34375 C 10.957031 -27.375 11.742188 -27.390625 12.203125 -27.390625 C 14.296875 -27.390625 16.03125 -27.09375 17.40625 -26.5 C 18.789062 -25.90625 19.828125 -25.097656 20.515625 -24.078125 C 21.203125 -23.054688 21.546875 -21.914062 21.546875 -20.65625 C 21.546875 -19.875 21.390625 -19.046875 21.078125 -18.171875 C 20.765625 -17.296875 20.226562 -16.46875 19.46875 -15.6875 C 18.707031 -14.914062 17.664062 -14.273438 16.34375 -13.765625 C 15.03125 -13.265625 13.367188 -13.015625 11.359375 -13.015625 L 7.640625 -13.015625 L 7.640625 -13.796875 L 10.96875 -13.796875 C 12.800781 -13.796875 14.203125 -14.082031 15.171875 -14.65625 C 16.140625 -15.238281 16.796875 -16.015625 17.140625 -16.984375 C 17.492188 -17.953125 17.671875 -19.035156 17.671875 -20.234375 C 17.671875 -22.265625 17.1875 -23.84375 16.21875 -24.96875 C 15.25 -26.09375 13.585938 -26.65625 11.234375 -26.65625 C 10.046875 -26.65625 9.269531 -26.4375 8.90625 -26 C 8.550781 -25.5625 8.375 -24.671875 8.375 -23.328125 L 8.375 -4.109375 C 8.375 -3.179688 8.445312 -2.484375 8.59375 -2.015625 C 8.75 -1.546875 9.050781 -1.234375 9.5 -1.078125 C 9.957031 -0.929688 10.628906 -0.832031 11.515625 -0.78125 L 11.515625 0 C 10.921875 -0.0507812 10.175781 -0.0820312 9.28125 -0.09375 C 8.382812 -0.101562 7.488281 -0.109375 6.59375 -0.109375 C 5.582031 -0.109375 4.632812 -0.101562 3.75 -0.09375 C 2.875 -0.0820312 2.164062 -0.0507812 1.625 0 L 1.625 -0.78125 C 2.5 -0.832031 3.160156 -0.929688 3.609375 -1.078125 C 4.066406 -1.234375 4.375 -1.546875 4.53125 -2.015625 C 4.6875 -2.484375 4.765625 -3.179688 4.765625 -4.109375 L 4.765625 -23.328125 C 4.765625 -24.285156 4.6875 -24.988281 4.53125 -25.4375 C 4.375 -25.894531 4.066406 -26.207031 3.609375 -26.375 C 3.160156 -26.539062 2.5 -26.632812 1.625 -26.65625 Z M 7.78125 -13.671875 C 9.175781 -13.617188 10.273438 -13.5625 11.078125 -13.5 C 11.878906 -13.4375 12.53125 -13.378906 13.03125 -13.328125 C 13.539062 -13.273438 14.03125 -13.210938 14.5 -13.140625 C 16.226562 -12.847656 17.472656 -12.320312 18.234375 -11.5625 C 18.992188 -10.800781 19.554688 -9.617188 19.921875 -8.015625 L 20.890625 -4.0625 C 21.148438 -2.925781 21.414062 -2.109375 21.6875 -1.609375 C 21.957031 -1.109375 22.375 -0.867188 22.9375 -0.890625 C 23.375 -0.921875 23.738281 -1.0625 24.03125 -1.3125 C 24.332031 -1.570312 24.65625 -1.921875 25 -2.359375 L 25.578125 -1.9375 C 25.035156 -1.132812 24.472656 -0.519531 23.890625 -0.09375 C 23.304688 0.332031 22.484375 0.546875 21.421875 0.546875 C 20.472656 0.546875 19.632812 0.261719 18.90625 -0.296875 C 18.1875 -0.867188 17.644531 -1.984375 17.28125 -3.640625 L 16.4375 -7.515625 C 16.195312 -8.628906 15.925781 -9.59375 15.625 -10.40625 C 15.332031 -11.21875 14.921875 -11.851562 14.390625 -12.3125 C 13.859375 -12.78125 13.078125 -13.015625 12.046875 -13.015625 L 7.859375 -13.015625 Z M 7.78125 -13.671875 "/></g></g></g><g fill="#f6f6f6" fill-opacity="1"><g transform="translate(584.226767, 42.875637)"><g><path d="M 23.828125 -27.4375 L 23.828125 -26.65625 C 23.023438 -26.550781 22.25 -26.289062 21.5 -25.875 C 20.75 -25.46875 20.003906 -24.785156 19.265625 -23.828125 L 11.78125 -14.265625 L 12.625 -16.15625 L 21.9375 -3.140625 C 22.375 -2.492188 22.847656 -1.988281 23.359375 -1.625 C 23.878906 -1.257812 24.539062 -0.976562 25.34375 -0.78125 L 25.34375 0 C 24.71875 -0.0507812 23.945312 -0.0820312 23.03125 -0.09375 C 22.113281 -0.101562 21.332031 -0.109375 20.6875 -0.109375 C 20.25 -0.109375 19.710938 -0.101562 19.078125 -0.09375 C 18.453125 -0.0820312 17.660156 -0.0507812 16.703125 0 L 16.703125 -0.78125 C 17.578125 -0.832031 18.128906 -0.984375 18.359375 -1.234375 C 18.597656 -1.492188 18.507812 -1.921875 18.09375 -2.515625 L 12.4375 -11.046875 C 11.914062 -11.847656 11.457031 -12.445312 11.0625 -12.84375 C 10.664062 -13.25 10.253906 -13.515625 9.828125 -13.640625 C 9.398438 -13.765625 8.863281 -13.84375 8.21875 -13.875 L 8.21875 -14.640625 C 9.300781 -14.671875 10.207031 -14.882812 10.9375 -15.28125 C 11.675781 -15.6875 12.289062 -16.195312 12.78125 -16.8125 L 16.5 -21.546875 C 17.351562 -22.628906 17.9375 -23.546875 18.25 -24.296875 C 18.5625 -25.046875 18.546875 -25.617188 18.203125 -26.015625 C 17.867188 -26.421875 17.160156 -26.632812 16.078125 -26.65625 L 16.078125 -27.4375 C 16.566406 -27.40625 17.070312 -27.382812 17.59375 -27.375 C 18.113281 -27.363281 18.625 -27.347656 19.125 -27.328125 C 19.625 -27.316406 20.09375 -27.3125 20.53125 -27.3125 C 21.207031 -27.3125 21.828125 -27.320312 22.390625 -27.34375 C 22.960938 -27.375 23.441406 -27.40625 23.828125 -27.4375 Z M 11.515625 -27.4375 L 11.515625 -26.65625 C 10.628906 -26.632812 9.957031 -26.539062 9.5 -26.375 C 9.050781 -26.207031 8.75 -25.894531 8.59375 -25.4375 C 8.445312 -24.988281 8.375 -24.285156 8.375 -23.328125 L 8.375 -4.109375 C 8.375 -3.179688 8.445312 -2.484375 8.59375 -2.015625 C 8.75 -1.546875 9.050781 -1.234375 9.5 -1.078125 C 9.957031 -0.929688 10.628906 -0.832031 11.515625 -0.78125 L 11.515625 0 C 10.921875 -0.0507812 10.175781 -0.0820312 9.28125 -0.09375 C 8.382812 -0.101562 7.488281 -0.109375 6.59375 -0.109375 C 5.582031 -0.109375 4.632812 -0.101562 3.75 -0.09375 C 2.875 -0.0820312 2.164062 -0.0507812 1.625 0 L 1.625 -0.78125 C 2.5 -0.832031 3.160156 -0.929688 3.609375 -1.078125 C 4.066406 -1.234375 4.375 -1.546875 4.53125 -2.015625 C 4.6875 -2.484375 4.765625 -3.179688 4.765625 -4.109375 L 4.765625 -23.328125 C 4.765625 -24.285156 4.6875 -24.988281 4.53125 -25.4375 C 4.375 -25.894531 4.066406 -26.207031 3.609375 -26.375 C 3.160156 -26.539062 2.5 -26.632812 1.625 -26.65625 L 1.625 -27.4375 C 2.164062 -27.40625 2.875 -27.375 3.75 -27.34375 C 4.632812 -27.320312 5.582031 -27.3125 6.59375 -27.3125 C 7.488281 -27.3125 8.382812 -27.320312 9.28125 -27.34375 C 10.175781 -27.375 10.921875 -27.40625 11.515625 -27.4375 Z M 11.515625 -27.4375 "/></g></g></g><g fill="#f6f6f6" fill-opacity="1"><g transform="translate(609.602895, 42.875637)"><g><path d="M 20.96875 -27.4375 C 20.863281 -26.53125 20.789062 -25.648438 20.75 -24.796875 C 20.707031 -23.941406 20.6875 -23.296875 20.6875 -22.859375 C 20.6875 -22.398438 20.695312 -21.957031 20.71875 -21.53125 C 20.75 -21.101562 20.78125 -20.742188 20.8125 -20.453125 L 19.921875 -20.453125 C 19.765625 -21.984375 19.539062 -23.191406 19.25 -24.078125 C 18.96875 -24.972656 18.484375 -25.609375 17.796875 -25.984375 C 17.117188 -26.359375 16.09375 -26.546875 14.71875 -26.546875 L 11.515625 -26.546875 C 10.628906 -26.546875 9.957031 -26.472656 9.5 -26.328125 C 9.050781 -26.191406 8.75 -25.894531 8.59375 -25.4375 C 8.445312 -24.988281 8.375 -24.285156 8.375 -23.328125 L 8.375 -4.109375 C 8.375 -3.179688 8.445312 -2.484375 8.59375 -2.015625 C 8.75 -1.546875 9.050781 -1.238281 9.5 -1.09375 C 9.957031 -0.957031 10.628906 -0.890625 11.515625 -0.890625 L 14.34375 -0.890625 C 15.96875 -0.890625 17.195312 -1.109375 18.03125 -1.546875 C 18.875 -1.984375 19.484375 -2.695312 19.859375 -3.6875 C 20.234375 -4.6875 20.507812 -6.039062 20.6875 -7.75 L 21.578125 -7.75 C 21.503906 -7.050781 21.46875 -6.117188 21.46875 -4.953125 C 21.46875 -4.460938 21.484375 -3.757812 21.515625 -2.84375 C 21.554688 -1.925781 21.628906 -0.976562 21.734375 0 C 20.421875 -0.0507812 18.9375 -0.0820312 17.28125 -0.09375 C 15.625 -0.101562 14.148438 -0.109375 12.859375 -0.109375 C 12.296875 -0.109375 11.566406 -0.109375 10.671875 -0.109375 C 9.785156 -0.109375 8.820312 -0.101562 7.78125 -0.09375 C 6.75 -0.0820312 5.703125 -0.0664062 4.640625 -0.046875 C 3.585938 -0.0351562 2.582031 -0.0195312 1.625 0 L 1.625 -0.78125 C 2.5 -0.832031 3.160156 -0.929688 3.609375 -1.078125 C 4.066406 -1.234375 4.375 -1.546875 4.53125 -2.015625 C 4.6875 -2.484375 4.765625 -3.179688 4.765625 -4.109375 L 4.765625 -23.328125 C 4.765625 -24.285156 4.6875 -24.988281 4.53125 -25.4375 C 4.375 -25.894531 4.066406 -26.207031 3.609375 -26.375 C 3.160156 -26.539062 2.5 -26.632812 1.625 -26.65625 L 1.625 -27.4375 C 2.582031 -27.40625 3.585938 -27.382812 4.640625 -27.375 C 5.703125 -27.363281 6.75 -27.347656 7.78125 -27.328125 C 8.820312 -27.316406 9.785156 -27.3125 10.671875 -27.3125 C 11.566406 -27.3125 12.296875 -27.3125 12.859375 -27.3125 C 14.046875 -27.3125 15.394531 -27.316406 16.90625 -27.328125 C 18.425781 -27.347656 19.78125 -27.382812 20.96875 -27.4375 Z M 14.296875 -14.1875 C 14.296875 -14.1875 14.296875 -14.054688 14.296875 -13.796875 C 14.296875 -13.535156 14.296875 -13.40625 14.296875 -13.40625 L 7.203125 -13.40625 C 7.203125 -13.40625 7.203125 -13.535156 7.203125 -13.796875 C 7.203125 -14.054688 7.203125 -14.1875 7.203125 -14.1875 Z M 15.421875 -19.296875 C 15.316406 -17.828125 15.269531 -16.703125 15.28125 -15.921875 C 15.300781 -15.148438 15.3125 -14.441406 15.3125 -13.796875 C 15.3125 -13.148438 15.320312 -12.4375 15.34375 -11.65625 C 15.375 -10.882812 15.4375 -9.765625 15.53125 -8.296875 L 14.640625 -8.296875 C 14.546875 -9.117188 14.425781 -9.921875 14.28125 -10.703125 C 14.132812 -11.492188 13.820312 -12.140625 13.34375 -12.640625 C 12.863281 -13.148438 12.054688 -13.40625 10.921875 -13.40625 L 10.921875 -14.1875 C 11.773438 -14.1875 12.425781 -14.359375 12.875 -14.703125 C 13.332031 -15.054688 13.664062 -15.503906 13.875 -16.046875 C 14.082031 -16.585938 14.222656 -17.144531 14.296875 -17.71875 C 14.378906 -18.300781 14.457031 -18.828125 14.53125 -19.296875 Z M 15.421875 -19.296875 "/></g></g></g><g fill="#f6f6f6" fill-opacity="1"><g transform="translate(633.196858, 42.875637)"><g><path d="M 22.9375 -27.4375 C 22.832031 -26.457031 22.757812 -25.507812 22.71875 -24.59375 C 22.6875 -23.675781 22.671875 -22.96875 22.671875 -22.46875 C 22.671875 -21.851562 22.679688 -21.273438 22.703125 -20.734375 C 22.734375 -20.191406 22.757812 -19.710938 22.78125 -19.296875 L 21.890625 -19.296875 C 21.710938 -21.109375 21.46875 -22.535156 21.15625 -23.578125 C 20.84375 -24.628906 20.300781 -25.382812 19.53125 -25.84375 C 18.757812 -26.3125 17.554688 -26.546875 15.921875 -26.546875 L 13.828125 -26.546875 L 13.828125 -4.5 C 13.828125 -3.457031 13.925781 -2.675781 14.125 -2.15625 C 14.320312 -1.644531 14.703125 -1.300781 15.265625 -1.125 C 15.835938 -0.945312 16.664062 -0.832031 17.75 -0.78125 L 17.75 0 C 17.070312 -0.0507812 16.21875 -0.0820312 15.1875 -0.09375 C 14.15625 -0.101562 13.109375 -0.109375 12.046875 -0.109375 C 10.890625 -0.109375 9.800781 -0.101562 8.78125 -0.09375 C 7.757812 -0.0820312 6.9375 -0.0507812 6.3125 0 L 6.3125 -0.78125 C 7.394531 -0.832031 8.222656 -0.945312 8.796875 -1.125 C 9.367188 -1.300781 9.75 -1.644531 9.9375 -2.15625 C 10.132812 -2.675781 10.234375 -3.457031 10.234375 -4.5 L 10.234375 -26.546875 L 8.140625 -26.546875 C 6.535156 -26.546875 5.335938 -26.3125 4.546875 -25.84375 C 3.765625 -25.382812 3.21875 -24.628906 2.90625 -23.578125 C 2.59375 -22.535156 2.347656 -21.109375 2.171875 -19.296875 L 1.28125 -19.296875 C 1.332031 -19.710938 1.363281 -20.191406 1.375 -20.734375 C 1.382812 -21.273438 1.390625 -21.851562 1.390625 -22.46875 C 1.390625 -22.96875 1.367188 -23.675781 1.328125 -24.59375 C 1.296875 -25.507812 1.226562 -26.457031 1.125 -27.4375 C 2.207031 -27.40625 3.390625 -27.375 4.671875 -27.34375 C 5.953125 -27.320312 7.238281 -27.3125 8.53125 -27.3125 C 9.820312 -27.3125 10.992188 -27.3125 12.046875 -27.3125 C 13.109375 -27.3125 14.273438 -27.3125 15.546875 -27.3125 C 16.828125 -27.3125 18.113281 -27.320312 19.40625 -27.34375 C 20.695312 -27.375 21.875 -27.40625 22.9375 -27.4375 Z M 22.9375 -27.4375 "/></g></g></g><g fill="#f6f6f6" fill-opacity="1"><g transform="translate(657.255771, 42.875637)"><g><path d="M 11.515625 -27.4375 L 11.515625 -26.65625 C 10.628906 -26.632812 9.957031 -26.539062 9.5 -26.375 C 9.050781 -26.207031 8.75 -25.894531 8.59375 -25.4375 C 8.445312 -24.988281 8.375 -24.285156 8.375 -23.328125 L 8.375 -4.109375 C 8.375 -3.179688 8.445312 -2.484375 8.59375 -2.015625 C 8.75 -1.546875 9.050781 -1.234375 9.5 -1.078125 C 9.957031 -0.929688 10.628906 -0.832031 11.515625 -0.78125 L 11.515625 0 C 10.921875 -0.0507812 10.175781 -0.0820312 9.28125 -0.09375 C 8.382812 -0.101562 7.488281 -0.109375 6.59375 -0.109375 C 5.582031 -0.109375 4.632812 -0.101562 3.75 -0.09375 C 2.875 -0.0820312 2.164062 -0.0507812 1.625 0 L 1.625 -0.78125 C 2.5 -0.832031 3.160156 -0.929688 3.609375 -1.078125 C 4.066406 -1.234375 4.375 -1.546875 4.53125 -2.015625 C 4.6875 -2.484375 4.765625 -3.179688 4.765625 -4.109375 L 4.765625 -23.328125 C 4.765625 -24.285156 4.6875 -24.988281 4.53125 -25.4375 C 4.375 -25.894531 4.066406 -26.207031 3.609375 -26.375 C 3.160156 -26.539062 2.5 -26.632812 1.625 -26.65625 L 1.625 -27.4375 C 2.164062 -27.40625 2.875 -27.375 3.75 -27.34375 C 4.632812 -27.320312 5.582031 -27.3125 6.59375 -27.3125 C 7.488281 -27.3125 8.382812 -27.320312 9.28125 -27.34375 C 10.175781 -27.375 10.921875 -27.40625 11.515625 -27.4375 Z M 11.515625 -27.4375 "/></g></g></g><g fill="#f6f6f6" fill-opacity="1"><g transform="translate(670.389376, 42.875637)"><g><path d="M 25.96875 -27.4375 L 25.96875 -26.65625 C 25.082031 -26.632812 24.410156 -26.503906 23.953125 -26.265625 C 23.503906 -26.035156 23.203125 -25.660156 23.046875 -25.140625 C 22.898438 -24.628906 22.828125 -23.894531 22.828125 -22.9375 L 22.828125 0.1875 C 22.671875 0.1875 22.519531 0.1875 22.375 0.1875 C 22.238281 0.1875 22.09375 0.1875 21.9375 0.1875 L 5.65625 -24.953125 L 5.65625 -4.5 C 5.65625 -3.5625 5.738281 -2.828125 5.90625 -2.296875 C 6.070312 -1.773438 6.40625 -1.40625 6.90625 -1.1875 C 7.414062 -0.96875 8.175781 -0.832031 9.1875 -0.78125 L 9.1875 0 C 8.71875 -0.0507812 8.109375 -0.0820312 7.359375 -0.09375 C 6.609375 -0.101562 5.898438 -0.109375 5.234375 -0.109375 C 4.585938 -0.109375 3.929688 -0.101562 3.265625 -0.09375 C 2.609375 -0.0820312 2.0625 -0.0507812 1.625 0 L 1.625 -0.78125 C 2.5 -0.832031 3.160156 -0.96875 3.609375 -1.1875 C 4.066406 -1.40625 4.375 -1.773438 4.53125 -2.296875 C 4.6875 -2.828125 4.765625 -3.5625 4.765625 -4.5 L 4.765625 -23.328125 C 4.765625 -24.285156 4.6875 -24.988281 4.53125 -25.4375 C 4.375 -25.894531 4.066406 -26.207031 3.609375 -26.375 C 3.160156 -26.539062 2.5 -26.632812 1.625 -26.65625 L 1.625 -27.4375 C 2.0625 -27.40625 2.609375 -27.375 3.265625 -27.34375 C 3.929688 -27.320312 4.585938 -27.3125 5.234375 -27.3125 C 5.796875 -27.3125 6.335938 -27.320312 6.859375 -27.34375 C 7.378906 -27.375 7.84375 -27.40625 8.25 -27.4375 L 21.9375 -6.359375 L 21.9375 -22.9375 C 21.9375 -23.894531 21.847656 -24.628906 21.671875 -25.140625 C 21.503906 -25.660156 21.171875 -26.035156 20.671875 -26.265625 C 20.171875 -26.503906 19.414062 -26.632812 18.40625 -26.65625 L 18.40625 -27.4375 C 18.875 -27.40625 19.488281 -27.375 20.25 -27.34375 C 21.007812 -27.320312 21.710938 -27.3125 22.359375 -27.3125 C 23.023438 -27.3125 23.6875 -27.320312 24.34375 -27.34375 C 25.007812 -27.375 25.550781 -27.40625 25.96875 -27.4375 Z M 25.96875 -27.4375 "/></g></g></g><g fill="#f6f6f6" fill-opacity="1"><g transform="translate(697.470125, 42.875637)"><g><path d="M 14.5625 -27.984375 C 16.25 -27.984375 17.609375 -27.726562 18.640625 -27.21875 C 19.671875 -26.71875 20.640625 -26.128906 21.546875 -25.453125 C 21.878906 -25.203125 22.132812 -25.078125 22.3125 -25.078125 C 22.8125 -25.078125 23.132812 -25.863281 23.28125 -27.4375 L 24.1875 -27.4375 C 24.132812 -26.476562 24.09375 -25.3125 24.0625 -23.9375 C 24.039062 -22.570312 24.03125 -20.765625 24.03125 -18.515625 L 23.140625 -18.515625 C 22.953125 -19.609375 22.726562 -20.65625 22.46875 -21.65625 C 22.21875 -22.664062 21.796875 -23.53125 21.203125 -24.25 C 20.453125 -25.207031 19.46875 -25.953125 18.25 -26.484375 C 17.039062 -27.015625 15.789062 -27.28125 14.5 -27.28125 C 13.207031 -27.28125 12.035156 -26.960938 10.984375 -26.328125 C 9.941406 -25.691406 9.046875 -24.78125 8.296875 -23.59375 C 7.546875 -22.40625 6.96875 -20.976562 6.5625 -19.3125 C 6.164062 -17.644531 5.96875 -15.765625 5.96875 -13.671875 C 5.96875 -9.023438 6.71875 -5.625 8.21875 -3.46875 C 9.71875 -1.3125 12.039062 -0.234375 15.1875 -0.234375 C 16.113281 -0.234375 16.921875 -0.367188 17.609375 -0.640625 C 18.296875 -0.910156 18.832031 -1.175781 19.21875 -1.4375 C 19.707031 -1.769531 20.015625 -2.082031 20.140625 -2.375 C 20.273438 -2.675781 20.34375 -3.070312 20.34375 -3.5625 L 20.34375 -7.28125 C 20.34375 -8.34375 20.238281 -9.128906 20.03125 -9.640625 C 19.820312 -10.160156 19.441406 -10.507812 18.890625 -10.6875 C 18.335938 -10.875 17.519531 -10.976562 16.4375 -11 L 16.4375 -11.78125 C 16.894531 -11.75 17.429688 -11.726562 18.046875 -11.71875 C 18.671875 -11.707031 19.328125 -11.691406 20.015625 -11.671875 C 20.703125 -11.660156 21.328125 -11.65625 21.890625 -11.65625 C 22.742188 -11.65625 23.507812 -11.664062 24.1875 -11.6875 C 24.875 -11.71875 25.453125 -11.75 25.921875 -11.78125 L 25.921875 -11 C 25.359375 -10.976562 24.929688 -10.890625 24.640625 -10.734375 C 24.359375 -10.578125 24.171875 -10.265625 24.078125 -9.796875 C 23.992188 -9.335938 23.953125 -8.628906 23.953125 -7.671875 L 23.953125 0 L 23.171875 0 C 23.148438 -0.4375 23.050781 -0.910156 22.875 -1.421875 C 22.707031 -1.941406 22.457031 -2.203125 22.125 -2.203125 C 21.96875 -2.203125 21.8125 -2.160156 21.65625 -2.078125 C 21.5 -2.003906 21.226562 -1.828125 20.84375 -1.546875 C 19.988281 -0.898438 19.082031 -0.390625 18.125 -0.015625 C 17.175781 0.359375 16.066406 0.546875 14.796875 0.546875 C 12.140625 0.546875 9.859375 0 7.953125 -1.09375 C 6.054688 -2.195312 4.601562 -3.78125 3.59375 -5.84375 C 2.59375 -7.914062 2.09375 -10.382812 2.09375 -13.25 C 2.09375 -16.269531 2.632812 -18.878906 3.71875 -21.078125 C 4.800781 -23.273438 6.28125 -24.972656 8.15625 -26.171875 C 10.03125 -27.378906 12.164062 -27.984375 14.5625 -27.984375 Z M 14.5625 -27.984375 "/></g></g></g><g fill="#f6f6f6" fill-opacity="1"><g transform="translate(724.705872, 42.875637)"><g><path d="M 4.875 -4.421875 C 5.550781 -4.421875 6.132812 -4.171875 6.625 -3.671875 C 7.113281 -3.179688 7.359375 -2.601562 7.359375 -1.9375 C 7.359375 -1.269531 7.113281 -0.6875 6.625 -0.1875 C 6.132812 0.300781 5.550781 0.546875 4.875 0.546875 C 4.207031 0.546875 3.628906 0.300781 3.140625 -0.1875 C 2.648438 -0.6875 2.40625 -1.269531 2.40625 -1.9375 C 2.40625 -2.601562 2.648438 -3.179688 3.140625 -3.671875 C 3.628906 -4.171875 4.207031 -4.421875 4.875 -4.421875 Z M 4.875 -4.421875 "/></g></g></g></svg>