<svg xmlns="http://www.w3.org/2000/svg" xmlns:xlink="http://www.w3.org/1999/xlink" width="1000" zoomAndPan="magnify" viewBox="0 0 750 60" height="80" preserveAspectRatio="xMidYMid meet" version="1.0"><defs><g/></defs><g fill="#f6f6f6" fill-opacity="1"><g transform="translate(25.730609, 47.530738)"><g><path d="M 14.125 -31.1875 L 24.8125 -3.671875 C 25.25 -2.566406 25.742188 -1.832031 26.296875 -1.46875 C 26.847656 -1.101562 27.359375 -0.90625 27.828125 -0.875 L 27.828125 0 C 27.242188 -0.0625 26.523438 -0.0976562 25.671875 -0.109375 C 24.828125 -0.117188 23.984375 -0.125 23.140625 -0.125 C 22.003906 -0.125 20.941406 -0.117188 19.953125 -0.109375 C 18.960938 -0.0976562 18.160156 -0.0625 17.546875 0 L 17.546875 -0.875 C 19.035156 -0.9375 19.984375 -1.191406 20.390625 -1.640625 C 20.796875 -2.085938 20.707031 -3.054688 20.125 -4.546875 L 11.984375 -26.296875 L 12.6875 -26.859375 L 5.078125 -7.09375 C 4.609375 -5.925781 4.328125 -4.941406 4.234375 -4.140625 C 4.148438 -3.335938 4.234375 -2.703125 4.484375 -2.234375 C 4.734375 -1.765625 5.15625 -1.425781 5.75 -1.21875 C 6.351562 -1.019531 7.101562 -0.90625 8 -0.875 L 8 0 C 7.1875 -0.0625 6.332031 -0.0976562 5.4375 -0.109375 C 4.550781 -0.117188 3.726562 -0.125 2.96875 -0.125 C 2.238281 -0.125 1.617188 -0.117188 1.109375 -0.109375 C 0.597656 -0.0976562 0.125 -0.0625 -0.3125 0 L -0.3125 -0.875 C 0.269531 -1.019531 0.867188 -1.363281 1.484375 -1.90625 C 2.097656 -2.445312 2.65625 -3.375 3.15625 -4.6875 L 13.4375 -31.1875 C 13.550781 -31.1875 13.664062 -31.1875 13.78125 -31.1875 C 13.894531 -31.1875 14.007812 -31.1875 14.125 -31.1875 Z M 19.46875 -12.59375 L 19.46875 -11.71875 L 6.4375 -11.71875 L 6.875 -12.59375 Z M 19.46875 -12.59375 "/></g></g></g><g fill="#f6f6f6" fill-opacity="1"><g transform="translate(52.415712, 47.530738)"><g><path d="M 13 -30.96875 L 13 -30.09375 C 12 -30.070312 11.242188 -29.960938 10.734375 -29.765625 C 10.222656 -29.578125 9.878906 -29.226562 9.703125 -28.71875 C 9.535156 -28.207031 9.453125 -27.414062 9.453125 -26.34375 L 9.453125 -4.640625 C 9.453125 -3.585938 9.535156 -2.796875 9.703125 -2.265625 C 9.878906 -1.742188 10.222656 -1.394531 10.734375 -1.21875 C 11.242188 -1.050781 12 -0.9375 13 -0.875 L 13 0 C 12.320312 -0.0625 11.476562 -0.0976562 10.46875 -0.109375 C 9.46875 -0.117188 8.457031 -0.125 7.4375 -0.125 C 6.300781 -0.125 5.234375 -0.117188 4.234375 -0.109375 C 3.242188 -0.0976562 2.445312 -0.0625 1.84375 0 L 1.84375 -0.875 C 2.832031 -0.9375 3.582031 -1.050781 4.09375 -1.21875 C 4.601562 -1.394531 4.941406 -1.742188 5.109375 -2.265625 C 5.285156 -2.796875 5.375 -3.585938 5.375 -4.640625 L 5.375 -26.34375 C 5.375 -27.414062 5.285156 -28.207031 5.109375 -28.71875 C 4.941406 -29.226562 4.601562 -29.578125 4.09375 -29.765625 C 3.582031 -29.960938 2.832031 -30.070312 1.84375 -30.09375 L 1.84375 -30.96875 C 2.445312 -30.945312 3.242188 -30.921875 4.234375 -30.890625 C 5.234375 -30.859375 6.300781 -30.84375 7.4375 -30.84375 C 8.457031 -30.84375 9.46875 -30.859375 10.46875 -30.890625 C 11.476562 -30.921875 12.320312 -30.945312 13 -30.96875 Z M 13 -30.96875 "/></g></g></g><g fill="#f6f6f6" fill-opacity="1"><g transform="translate(67.245641, 47.530738)"><g><path d="M 5.515625 -4.984375 C 6.273438 -4.984375 6.929688 -4.707031 7.484375 -4.15625 C 8.035156 -3.601562 8.3125 -2.945312 8.3125 -2.1875 C 8.3125 -1.425781 8.035156 -0.769531 7.484375 -0.21875 C 6.929688 0.332031 6.273438 0.609375 5.515625 0.609375 C 4.753906 0.609375 4.097656 0.332031 3.546875 -0.21875 C 2.992188 -0.769531 2.71875 -1.425781 2.71875 -2.1875 C 2.71875 -2.945312 2.992188 -3.601562 3.546875 -4.15625 C 4.097656 -4.707031 4.753906 -4.984375 5.515625 -4.984375 Z M 5.515625 -4.984375 "/></g></g></g><g fill="#f6f6f6" fill-opacity="1"><g transform="translate(78.269665, 47.530738)"><g/></g></g><g fill="#f6f6f6" fill-opacity="1"><g transform="translate(89.162449, 47.530738)"><g><path d="M 16.453125 -31.59375 C 18.347656 -31.59375 19.878906 -31.304688 21.046875 -30.734375 C 22.210938 -30.160156 23.304688 -29.5 24.328125 -28.75 C 24.703125 -28.457031 24.992188 -28.3125 25.203125 -28.3125 C 25.753906 -28.3125 26.117188 -29.195312 26.296875 -30.96875 L 27.296875 -30.96875 C 27.242188 -29.894531 27.203125 -28.582031 27.171875 -27.03125 C 27.140625 -25.488281 27.125 -23.445312 27.125 -20.90625 L 26.125 -20.90625 C 25.914062 -22.132812 25.664062 -23.316406 25.375 -24.453125 C 25.082031 -25.585938 24.601562 -26.566406 23.9375 -27.390625 C 23.082031 -28.460938 21.96875 -29.296875 20.59375 -29.890625 C 19.226562 -30.492188 17.816406 -30.796875 16.359375 -30.796875 C 14.898438 -30.796875 13.578125 -30.4375 12.390625 -29.71875 C 11.210938 -29.007812 10.203125 -27.984375 9.359375 -26.640625 C 8.515625 -25.296875 7.863281 -23.679688 7.40625 -21.796875 C 6.957031 -19.921875 6.734375 -17.800781 6.734375 -15.4375 C 6.734375 -10.1875 7.578125 -6.34375 9.265625 -3.90625 C 10.960938 -1.476562 13.59375 -0.265625 17.15625 -0.265625 C 18.195312 -0.265625 19.101562 -0.414062 19.875 -0.71875 C 20.65625 -1.03125 21.265625 -1.332031 21.703125 -1.625 C 22.253906 -2 22.601562 -2.351562 22.75 -2.6875 C 22.894531 -3.019531 22.96875 -3.46875 22.96875 -4.03125 L 22.96875 -8.21875 C 22.96875 -9.414062 22.847656 -10.304688 22.609375 -10.890625 C 22.378906 -11.472656 21.953125 -11.863281 21.328125 -12.0625 C 20.703125 -12.269531 19.773438 -12.390625 18.546875 -12.421875 L 18.546875 -13.296875 C 19.078125 -13.265625 19.691406 -13.242188 20.390625 -13.234375 C 21.085938 -13.222656 21.820312 -13.207031 22.59375 -13.1875 C 23.363281 -13.175781 24.070312 -13.171875 24.71875 -13.171875 C 25.675781 -13.171875 26.539062 -13.179688 27.3125 -13.203125 C 28.09375 -13.234375 28.742188 -13.265625 29.265625 -13.296875 L 29.265625 -12.421875 C 28.628906 -12.390625 28.148438 -12.285156 27.828125 -12.109375 C 27.503906 -11.941406 27.289062 -11.59375 27.1875 -11.0625 C 27.082031 -10.539062 27.03125 -9.738281 27.03125 -8.65625 L 27.03125 0 L 26.15625 0 C 26.132812 -0.5 26.023438 -1.039062 25.828125 -1.625 C 25.640625 -2.207031 25.359375 -2.5 24.984375 -2.5 C 24.804688 -2.5 24.628906 -2.453125 24.453125 -2.359375 C 24.273438 -2.273438 23.96875 -2.070312 23.53125 -1.75 C 22.570312 -1.019531 21.550781 -0.441406 20.46875 -0.015625 C 19.394531 0.398438 18.144531 0.609375 16.71875 0.609375 C 13.707031 0.609375 11.128906 -0.0078125 8.984375 -1.25 C 6.847656 -2.488281 5.207031 -4.273438 4.0625 -6.609375 C 2.925781 -8.941406 2.359375 -11.726562 2.359375 -14.96875 C 2.359375 -18.375 2.96875 -21.316406 4.1875 -23.796875 C 5.414062 -26.273438 7.085938 -28.191406 9.203125 -29.546875 C 11.316406 -30.910156 13.734375 -31.59375 16.453125 -31.59375 Z M 16.453125 -31.59375 "/></g></g></g><g fill="#f6f6f6" fill-opacity="1"><g transform="translate(119.915961, 47.530738)"><g><path d="M 1.84375 -30.96875 C 2.445312 -30.945312 3.242188 -30.921875 4.234375 -30.890625 C 5.234375 -30.859375 6.210938 -30.84375 7.171875 -30.84375 C 8.546875 -30.84375 9.859375 -30.859375 11.109375 -30.890625 C 12.367188 -30.921875 13.257812 -30.9375 13.78125 -30.9375 C 16.144531 -30.9375 18.101562 -30.597656 19.65625 -29.921875 C 21.21875 -29.253906 22.382812 -28.34375 23.15625 -27.1875 C 23.9375 -26.039062 24.328125 -24.75 24.328125 -23.3125 C 24.328125 -22.4375 24.148438 -21.503906 23.796875 -20.515625 C 23.453125 -19.523438 22.847656 -18.59375 21.984375 -17.71875 C 21.117188 -16.84375 19.941406 -16.117188 18.453125 -15.546875 C 16.972656 -14.984375 15.09375 -14.703125 12.8125 -14.703125 L 8.625 -14.703125 L 8.625 -15.578125 L 12.375 -15.578125 C 14.445312 -15.578125 16.03125 -15.90625 17.125 -16.5625 C 18.21875 -17.21875 18.960938 -18.09375 19.359375 -19.1875 C 19.753906 -20.28125 19.953125 -21.5 19.953125 -22.84375 C 19.953125 -25.144531 19.40625 -26.925781 18.3125 -28.1875 C 17.21875 -29.457031 15.34375 -30.09375 12.6875 -30.09375 C 11.34375 -30.09375 10.46875 -29.84375 10.0625 -29.34375 C 9.65625 -28.851562 9.453125 -27.851562 9.453125 -26.34375 L 9.453125 -4.640625 C 9.453125 -3.585938 9.535156 -2.796875 9.703125 -2.265625 C 9.878906 -1.742188 10.222656 -1.394531 10.734375 -1.21875 C 11.242188 -1.050781 12 -0.9375 13 -0.875 L 13 0 C 12.320312 -0.0625 11.476562 -0.0976562 10.46875 -0.109375 C 9.46875 -0.117188 8.457031 -0.125 7.4375 -0.125 C 6.300781 -0.125 5.234375 -0.117188 4.234375 -0.109375 C 3.242188 -0.0976562 2.445312 -0.0625 1.84375 0 L 1.84375 -0.875 C 2.832031 -0.9375 3.582031 -1.050781 4.09375 -1.21875 C 4.601562 -1.394531 4.941406 -1.742188 5.109375 -2.265625 C 5.285156 -2.796875 5.375 -3.585938 5.375 -4.640625 L 5.375 -26.34375 C 5.375 -27.414062 5.285156 -28.207031 5.109375 -28.71875 C 4.941406 -29.226562 4.601562 -29.578125 4.09375 -29.765625 C 3.582031 -29.960938 2.832031 -30.070312 1.84375 -30.09375 Z M 8.796875 -15.4375 C 10.367188 -15.382812 11.609375 -15.320312 12.515625 -15.25 C 13.421875 -15.175781 14.15625 -15.109375 14.71875 -15.046875 C 15.289062 -14.992188 15.835938 -14.921875 16.359375 -14.828125 C 18.316406 -14.503906 19.722656 -13.910156 20.578125 -13.046875 C 21.441406 -12.191406 22.078125 -10.863281 22.484375 -9.0625 L 23.578125 -4.59375 C 23.867188 -3.3125 24.164062 -2.382812 24.46875 -1.8125 C 24.78125 -1.25 25.257812 -0.976562 25.90625 -1 C 26.394531 -1.03125 26.804688 -1.191406 27.140625 -1.484375 C 27.484375 -1.773438 27.84375 -2.171875 28.21875 -2.671875 L 28.875 -2.1875 C 28.257812 -1.28125 27.625 -0.585938 26.96875 -0.109375 C 26.3125 0.367188 25.382812 0.609375 24.1875 0.609375 C 23.113281 0.609375 22.164062 0.289062 21.34375 -0.34375 C 20.53125 -0.988281 19.921875 -2.242188 19.515625 -4.109375 L 18.546875 -8.484375 C 18.285156 -9.742188 17.988281 -10.832031 17.65625 -11.75 C 17.320312 -12.664062 16.851562 -13.382812 16.25 -13.90625 C 15.65625 -14.4375 14.773438 -14.703125 13.609375 -14.703125 L 8.875 -14.703125 Z M 8.796875 -15.4375 "/></g></g></g><g fill="#f6f6f6" fill-opacity="1"><g transform="translate(148.263444, 47.530738)"><g><path d="M 16.234375 -31.59375 C 19.003906 -31.59375 21.429688 -30.960938 23.515625 -29.703125 C 25.597656 -28.453125 27.210938 -26.648438 28.359375 -24.296875 C 29.515625 -21.953125 30.09375 -19.101562 30.09375 -15.75 C 30.09375 -12.476562 29.503906 -9.617188 28.328125 -7.171875 C 27.148438 -4.722656 25.507812 -2.8125 23.40625 -1.4375 C 21.300781 -0.0703125 18.894531 0.609375 16.1875 0.609375 C 13.414062 0.609375 10.988281 -0.015625 8.90625 -1.265625 C 6.820312 -2.523438 5.203125 -4.332031 4.046875 -6.6875 C 2.890625 -9.050781 2.3125 -11.894531 2.3125 -15.21875 C 2.3125 -18.488281 2.910156 -21.347656 4.109375 -23.796875 C 5.304688 -26.242188 6.945312 -28.15625 9.03125 -29.53125 C 11.113281 -30.90625 13.515625 -31.59375 16.234375 -31.59375 Z M 16.0625 -30.796875 C 14.164062 -30.796875 12.515625 -30.140625 11.109375 -28.828125 C 9.710938 -27.515625 8.625 -25.707031 7.84375 -23.40625 C 7.070312 -21.101562 6.6875 -18.4375 6.6875 -15.40625 C 6.6875 -12.3125 7.117188 -9.617188 7.984375 -7.328125 C 8.847656 -5.035156 10.015625 -3.269531 11.484375 -2.03125 C 12.953125 -0.789062 14.578125 -0.171875 16.359375 -0.171875 C 18.253906 -0.171875 19.898438 -0.828125 21.296875 -2.140625 C 22.703125 -3.453125 23.789062 -5.265625 24.5625 -7.578125 C 25.332031 -9.898438 25.71875 -12.566406 25.71875 -15.578125 C 25.71875 -18.691406 25.285156 -21.382812 24.421875 -23.65625 C 23.566406 -25.9375 22.410156 -27.695312 20.953125 -28.9375 C 19.492188 -30.175781 17.863281 -30.796875 16.0625 -30.796875 Z M 16.0625 -30.796875 "/></g></g></g><g fill="#f6f6f6" fill-opacity="1"><g transform="translate(180.19809, 47.530738)"><g><path d="M 39.6875 -30.96875 L 39.6875 -30.09375 C 39.125 -29.976562 38.507812 -29.648438 37.84375 -29.109375 C 37.175781 -28.578125 36.632812 -27.640625 36.21875 -26.296875 L 27.953125 0.21875 C 27.898438 0.21875 27.84375 0.21875 27.78125 0.21875 C 27.71875 0.21875 27.660156 0.21875 27.609375 0.21875 C 27.546875 0.21875 27.484375 0.21875 27.421875 0.21875 C 27.367188 0.21875 27.3125 0.21875 27.25 0.21875 L 17.984375 -27.296875 C 17.597656 -28.429688 17.171875 -29.175781 16.703125 -29.53125 C 16.242188 -29.882812 15.8125 -30.070312 15.40625 -30.09375 L 15.40625 -30.96875 C 15.925781 -30.945312 16.578125 -30.921875 17.359375 -30.890625 C 18.148438 -30.859375 18.910156 -30.84375 19.640625 -30.84375 C 20.773438 -30.84375 21.835938 -30.859375 22.828125 -30.890625 C 23.828125 -30.921875 24.632812 -30.945312 25.25 -30.96875 L 25.25 -30.09375 C 24.375 -30.070312 23.679688 -29.988281 23.171875 -29.84375 C 22.660156 -29.695312 22.367188 -29.375 22.296875 -28.875 C 22.222656 -28.375 22.359375 -27.554688 22.703125 -26.421875 L 29.21875 -6.25 L 28.609375 -5.734375 L 34.390625 -23.890625 C 34.910156 -25.492188 35.148438 -26.738281 35.109375 -27.625 C 35.066406 -28.519531 34.738281 -29.148438 34.125 -29.515625 C 33.507812 -29.878906 32.59375 -30.070312 31.375 -30.09375 L 31.375 -30.96875 C 32.21875 -30.945312 33.078125 -30.921875 33.953125 -30.890625 C 34.828125 -30.859375 35.644531 -30.84375 36.40625 -30.84375 C 37.15625 -30.84375 37.78125 -30.859375 38.28125 -30.890625 C 38.78125 -30.921875 39.25 -30.945312 39.6875 -30.96875 Z M 9.09375 -30.96875 L 9.09375 -30.09375 C 8.34375 -30.039062 7.796875 -29.894531 7.453125 -29.65625 C 7.117188 -29.425781 6.957031 -29.054688 6.96875 -28.546875 C 6.988281 -28.035156 7.144531 -27.328125 7.4375 -26.421875 L 14.21875 -5.734375 L 13.125 -4.640625 L 19.25 -24.1875 L 19.90625 -23.140625 L 12.6875 0.21875 C 12.625 0.21875 12.5625 0.21875 12.5 0.21875 C 12.445312 0.21875 12.394531 0.21875 12.34375 0.21875 C 12.28125 0.21875 12.21875 0.21875 12.15625 0.21875 C 12.101562 0.21875 12.046875 0.21875 11.984375 0.21875 L 2.71875 -27.296875 C 2.332031 -28.429688 1.847656 -29.175781 1.265625 -29.53125 C 0.679688 -29.882812 0.15625 -30.070312 -0.3125 -30.09375 L -0.3125 -30.96875 C 0.269531 -30.945312 0.992188 -30.921875 1.859375 -30.890625 C 2.722656 -30.859375 3.5625 -30.84375 4.375 -30.84375 C 5.332031 -30.84375 6.226562 -30.859375 7.0625 -30.890625 C 7.894531 -30.921875 8.570312 -30.945312 9.09375 -30.96875 Z M 9.09375 -30.96875 "/></g></g></g><g fill="#f6f6f6" fill-opacity="1"><g transform="translate(219.788317, 47.530738)"><g><path d="M 25.90625 -30.96875 C 25.78125 -29.863281 25.695312 -28.789062 25.65625 -27.75 C 25.613281 -26.71875 25.59375 -25.925781 25.59375 -25.375 C 25.59375 -24.675781 25.609375 -24.019531 25.640625 -23.40625 C 25.671875 -22.789062 25.695312 -22.25 25.71875 -21.78125 L 24.71875 -21.78125 C 24.507812 -23.820312 24.226562 -25.429688 23.875 -26.609375 C 23.53125 -27.796875 22.921875 -28.648438 22.046875 -29.171875 C 21.171875 -29.703125 19.816406 -29.96875 17.984375 -29.96875 L 15.625 -29.96875 L 15.625 -5.078125 C 15.625 -3.910156 15.734375 -3.035156 15.953125 -2.453125 C 16.171875 -1.867188 16.597656 -1.472656 17.234375 -1.265625 C 17.878906 -1.066406 18.8125 -0.9375 20.03125 -0.875 L 20.03125 0 C 19.28125 -0.0625 18.320312 -0.0976562 17.15625 -0.109375 C 15.988281 -0.117188 14.804688 -0.125 13.609375 -0.125 C 12.296875 -0.125 11.0625 -0.117188 9.90625 -0.109375 C 8.757812 -0.0976562 7.832031 -0.0625 7.125 0 L 7.125 -0.875 C 8.351562 -0.9375 9.285156 -1.066406 9.921875 -1.265625 C 10.566406 -1.472656 11 -1.867188 11.21875 -2.453125 C 11.4375 -3.035156 11.546875 -3.910156 11.546875 -5.078125 L 11.546875 -29.96875 L 9.1875 -29.96875 C 7.375 -29.96875 6.023438 -29.703125 5.140625 -29.171875 C 4.253906 -28.648438 3.632812 -27.796875 3.28125 -26.609375 C 2.925781 -25.429688 2.648438 -23.820312 2.453125 -21.78125 L 1.4375 -21.78125 C 1.5 -22.25 1.535156 -22.789062 1.546875 -23.40625 C 1.566406 -24.019531 1.578125 -24.675781 1.578125 -25.375 C 1.578125 -25.925781 1.550781 -26.71875 1.5 -27.75 C 1.457031 -28.789062 1.378906 -29.863281 1.265625 -30.96875 C 2.492188 -30.945312 3.828125 -30.921875 5.265625 -30.890625 C 6.710938 -30.859375 8.164062 -30.84375 9.625 -30.84375 C 11.082031 -30.84375 12.410156 -30.84375 13.609375 -30.84375 C 14.804688 -30.84375 16.125 -30.84375 17.5625 -30.84375 C 19.007812 -30.84375 20.460938 -30.859375 21.921875 -30.890625 C 23.378906 -30.921875 24.707031 -30.945312 25.90625 -30.96875 Z M 25.90625 -30.96875 "/></g></g></g><g fill="#f6f6f6" fill-opacity="1"><g transform="translate(246.954644, 47.530738)"><g><path d="M 20.125 0 L 20.125 -0.875 C 21.113281 -0.9375 21.863281 -1.050781 22.375 -1.21875 C 22.882812 -1.394531 23.226562 -1.742188 23.40625 -2.265625 C 23.582031 -2.796875 23.671875 -3.585938 23.671875 -4.640625 L 23.671875 -26.34375 C 23.671875 -27.414062 23.582031 -28.207031 23.40625 -28.71875 C 23.226562 -29.226562 22.882812 -29.578125 22.375 -29.765625 C 21.863281 -29.960938 21.113281 -30.070312 20.125 -30.09375 L 20.125 -30.96875 C 20.789062 -30.945312 21.632812 -30.921875 22.65625 -30.890625 C 23.675781 -30.859375 24.6875 -30.84375 25.6875 -30.84375 C 26.820312 -30.84375 27.882812 -30.859375 28.875 -30.890625 C 29.863281 -30.921875 30.664062 -30.945312 31.28125 -30.96875 L 31.28125 -30.09375 C 30.289062 -30.070312 29.539062 -29.960938 29.03125 -29.765625 C 28.519531 -29.578125 28.175781 -29.226562 28 -28.71875 C 27.820312 -28.207031 27.734375 -27.414062 27.734375 -26.34375 L 27.734375 -4.640625 C 27.734375 -3.585938 27.820312 -2.796875 28 -2.265625 C 28.175781 -1.742188 28.519531 -1.394531 29.03125 -1.21875 C 29.539062 -1.050781 30.289062 -0.9375 31.28125 -0.875 L 31.28125 0 C 30.664062 -0.0625 29.863281 -0.0976562 28.875 -0.109375 C 27.882812 -0.117188 26.820312 -0.125 25.6875 -0.125 C 24.6875 -0.125 23.675781 -0.117188 22.65625 -0.109375 C 21.632812 -0.0976562 20.789062 -0.0625 20.125 0 Z M 1.84375 0 L 1.84375 -0.875 C 2.832031 -0.9375 3.582031 -1.050781 4.09375 -1.21875 C 4.601562 -1.394531 4.941406 -1.742188 5.109375 -2.265625 C 5.285156 -2.796875 5.375 -3.585938 5.375 -4.640625 L 5.375 -26.34375 C 5.375 -27.414062 5.285156 -28.207031 5.109375 -28.71875 C 4.941406 -29.226562 4.601562 -29.578125 4.09375 -29.765625 C 3.582031 -29.960938 2.832031 -30.070312 1.84375 -30.09375 L 1.84375 -30.96875 C 2.445312 -30.945312 3.242188 -30.921875 4.234375 -30.890625 C 5.234375 -30.859375 6.300781 -30.84375 7.4375 -30.84375 C 8.457031 -30.84375 9.46875 -30.859375 10.46875 -30.890625 C 11.476562 -30.921875 12.320312 -30.945312 13 -30.96875 L 13 -30.09375 C 12 -30.070312 11.242188 -29.960938 10.734375 -29.765625 C 10.222656 -29.578125 9.878906 -29.226562 9.703125 -28.71875 C 9.535156 -28.207031 9.453125 -27.414062 9.453125 -26.34375 L 9.453125 -4.640625 C 9.453125 -3.585938 9.535156 -2.796875 9.703125 -2.265625 C 9.878906 -1.742188 10.222656 -1.394531 10.734375 -1.21875 C 11.242188 -1.050781 12 -0.9375 13 -0.875 L 13 0 C 12.320312 -0.0625 11.476562 -0.0976562 10.46875 -0.109375 C 9.46875 -0.117188 8.457031 -0.125 7.4375 -0.125 C 6.300781 -0.125 5.234375 -0.117188 4.234375 -0.109375 C 3.242188 -0.0976562 2.445312 -0.0625 1.84375 0 Z M 7.921875 -15.140625 L 7.921875 -16.015625 L 25.203125 -16.015625 L 25.203125 -15.140625 Z M 7.921875 -15.140625 "/></g></g></g><g fill="#f6f6f6" fill-opacity="1"><g transform="translate(280.070457, 47.530738)"><g><path d="M 5.515625 -4.984375 C 6.273438 -4.984375 6.929688 -4.707031 7.484375 -4.15625 C 8.035156 -3.601562 8.3125 -2.945312 8.3125 -2.1875 C 8.3125 -1.425781 8.035156 -0.769531 7.484375 -0.21875 C 6.929688 0.332031 6.273438 0.609375 5.515625 0.609375 C 4.753906 0.609375 4.097656 0.332031 3.546875 -0.21875 C 2.992188 -0.769531 2.71875 -1.425781 2.71875 -2.1875 C 2.71875 -2.945312 2.992188 -3.601562 3.546875 -4.15625 C 4.097656 -4.707031 4.753906 -4.984375 5.515625 -4.984375 Z M 5.515625 -4.984375 "/></g></g></g><g fill="#f6f6f6" fill-opacity="1"><g transform="translate(291.094482, 47.530738)"><g/></g></g><g fill="#f6f6f6" fill-opacity="1"><g transform="translate(301.987265, 47.530738)"><g><path d="M 16.234375 -31.59375 C 18.160156 -31.59375 19.742188 -31.304688 20.984375 -30.734375 C 22.222656 -30.160156 23.320312 -29.5 24.28125 -28.75 C 24.863281 -28.3125 25.304688 -28.257812 25.609375 -28.59375 C 25.921875 -28.925781 26.132812 -29.71875 26.25 -30.96875 L 27.25 -30.96875 C 27.195312 -29.894531 27.15625 -28.582031 27.125 -27.03125 C 27.09375 -25.488281 27.078125 -23.445312 27.078125 -20.90625 L 26.078125 -20.90625 C 25.867188 -22.164062 25.675781 -23.164062 25.5 -23.90625 C 25.332031 -24.65625 25.125 -25.289062 24.875 -25.8125 C 24.625 -26.332031 24.296875 -26.859375 23.890625 -27.390625 C 22.984375 -28.585938 21.84375 -29.453125 20.46875 -29.984375 C 19.101562 -30.523438 17.660156 -30.796875 16.140625 -30.796875 C 14.710938 -30.796875 13.421875 -30.4375 12.265625 -29.71875 C 11.117188 -29.007812 10.128906 -27.984375 9.296875 -26.640625 C 8.460938 -25.296875 7.816406 -23.675781 7.359375 -21.78125 C 6.910156 -19.882812 6.6875 -17.757812 6.6875 -15.40625 C 6.6875 -12.945312 6.9375 -10.773438 7.4375 -8.890625 C 7.9375 -7.015625 8.628906 -5.4375 9.515625 -4.15625 C 10.398438 -2.875 11.445312 -1.90625 12.65625 -1.25 C 13.875 -0.59375 15.179688 -0.265625 16.578125 -0.265625 C 17.890625 -0.265625 19.257812 -0.523438 20.6875 -1.046875 C 22.125 -1.578125 23.25 -2.425781 24.0625 -3.59375 C 24.707031 -4.4375 25.148438 -5.351562 25.390625 -6.34375 C 25.640625 -7.332031 25.867188 -8.71875 26.078125 -10.5 L 27.078125 -10.5 C 27.078125 -7.84375 27.09375 -5.703125 27.125 -4.078125 C 27.15625 -2.460938 27.195312 -1.101562 27.25 0 L 26.25 0 C 26.132812 -1.25 25.9375 -2.035156 25.65625 -2.359375 C 25.382812 -2.679688 24.925781 -2.640625 24.28125 -2.234375 C 23.195312 -1.472656 22.050781 -0.804688 20.84375 -0.234375 C 19.632812 0.328125 18.082031 0.609375 16.1875 0.609375 C 13.414062 0.609375 10.988281 -0.015625 8.90625 -1.265625 C 6.820312 -2.523438 5.203125 -4.332031 4.046875 -6.6875 C 2.890625 -9.050781 2.3125 -11.894531 2.3125 -15.21875 C 2.3125 -18.488281 2.910156 -21.347656 4.109375 -23.796875 C 5.304688 -26.242188 6.945312 -28.15625 9.03125 -29.53125 C 11.113281 -30.90625 13.515625 -31.59375 16.234375 -31.59375 Z M 16.234375 -31.59375 "/></g></g></g><g fill="#f6f6f6" fill-opacity="1"><g transform="translate(332.084585, 47.530738)"><g><path d="M 16.234375 -31.59375 C 19.003906 -31.59375 21.429688 -30.960938 23.515625 -29.703125 C 25.597656 -28.453125 27.210938 -26.648438 28.359375 -24.296875 C 29.515625 -21.953125 30.09375 -19.101562 30.09375 -15.75 C 30.09375 -12.476562 29.503906 -9.617188 28.328125 -7.171875 C 27.148438 -4.722656 25.507812 -2.8125 23.40625 -1.4375 C 21.300781 -0.0703125 18.894531 0.609375 16.1875 0.609375 C 13.414062 0.609375 10.988281 -0.015625 8.90625 -1.265625 C 6.820312 -2.523438 5.203125 -4.332031 4.046875 -6.6875 C 2.890625 -9.050781 2.3125 -11.894531 2.3125 -15.21875 C 2.3125 -18.488281 2.910156 -21.347656 4.109375 -23.796875 C 5.304688 -26.242188 6.945312 -28.15625 9.03125 -29.53125 C 11.113281 -30.90625 13.515625 -31.59375 16.234375 -31.59375 Z M 16.0625 -30.796875 C 14.164062 -30.796875 12.515625 -30.140625 11.109375 -28.828125 C 9.710938 -27.515625 8.625 -25.707031 7.84375 -23.40625 C 7.070312 -21.101562 6.6875 -18.4375 6.6875 -15.40625 C 6.6875 -12.3125 7.117188 -9.617188 7.984375 -7.328125 C 8.847656 -5.035156 10.015625 -3.269531 11.484375 -2.03125 C 12.953125 -0.789062 14.578125 -0.171875 16.359375 -0.171875 C 18.253906 -0.171875 19.898438 -0.828125 21.296875 -2.140625 C 22.703125 -3.453125 23.789062 -5.265625 24.5625 -7.578125 C 25.332031 -9.898438 25.71875 -12.566406 25.71875 -15.578125 C 25.71875 -18.691406 25.285156 -21.382812 24.421875 -23.65625 C 23.566406 -25.9375 22.410156 -27.695312 20.953125 -28.9375 C 19.492188 -30.175781 17.863281 -30.796875 16.0625 -30.796875 Z M 16.0625 -30.796875 "/></g></g></g><g fill="#f6f6f6" fill-opacity="1"><g transform="translate(364.150471, 47.530738)"><g><path d="M 29.3125 -30.96875 L 29.3125 -30.09375 C 28.320312 -30.070312 27.570312 -29.925781 27.0625 -29.65625 C 26.550781 -29.394531 26.207031 -28.972656 26.03125 -28.390625 C 25.851562 -27.804688 25.765625 -26.976562 25.765625 -25.90625 L 25.765625 0.21875 C 25.585938 0.21875 25.421875 0.21875 25.265625 0.21875 C 25.109375 0.21875 24.941406 0.21875 24.765625 0.21875 L 6.390625 -28.171875 L 6.390625 -5.078125 C 6.390625 -4.023438 6.484375 -3.195312 6.671875 -2.59375 C 6.859375 -2 7.234375 -1.578125 7.796875 -1.328125 C 8.367188 -1.085938 9.226562 -0.9375 10.375 -0.875 L 10.375 0 C 9.84375 -0.0625 9.15625 -0.0976562 8.3125 -0.109375 C 7.46875 -0.117188 6.664062 -0.125 5.90625 -0.125 C 5.175781 -0.125 4.4375 -0.117188 3.6875 -0.109375 C 2.945312 -0.0976562 2.332031 -0.0625 1.84375 0 L 1.84375 -0.875 C 2.832031 -0.9375 3.582031 -1.085938 4.09375 -1.328125 C 4.601562 -1.578125 4.941406 -2 5.109375 -2.59375 C 5.285156 -3.195312 5.375 -4.023438 5.375 -5.078125 L 5.375 -26.34375 C 5.375 -27.414062 5.285156 -28.207031 5.109375 -28.71875 C 4.941406 -29.226562 4.601562 -29.578125 4.09375 -29.765625 C 3.582031 -29.960938 2.832031 -30.070312 1.84375 -30.09375 L 1.84375 -30.96875 C 2.332031 -30.945312 2.945312 -30.921875 3.6875 -30.890625 C 4.4375 -30.859375 5.175781 -30.84375 5.90625 -30.84375 C 6.550781 -30.84375 7.164062 -30.859375 7.75 -30.890625 C 8.332031 -30.921875 8.851562 -30.945312 9.3125 -30.96875 L 24.765625 -7.171875 L 24.765625 -25.90625 C 24.765625 -26.976562 24.664062 -27.804688 24.46875 -28.390625 C 24.28125 -28.972656 23.898438 -29.394531 23.328125 -29.65625 C 22.765625 -29.925781 21.914062 -30.070312 20.78125 -30.09375 L 20.78125 -30.96875 C 21.300781 -30.945312 21.992188 -30.921875 22.859375 -30.890625 C 23.722656 -30.859375 24.519531 -30.84375 25.25 -30.84375 C 26 -30.84375 26.742188 -30.859375 27.484375 -30.890625 C 28.234375 -30.921875 28.84375 -30.945312 29.3125 -30.96875 Z M 29.3125 -30.96875 "/></g></g></g><g fill="#f6f6f6" fill-opacity="1"><g transform="translate(395.035236, 47.530738)"><g><path d="M 11.203125 -31.453125 C 12.660156 -31.453125 13.765625 -31.285156 14.515625 -30.953125 C 15.273438 -30.617188 15.945312 -30.25 16.53125 -29.84375 C 16.882812 -29.632812 17.171875 -29.476562 17.390625 -29.375 C 17.609375 -29.269531 17.820312 -29.21875 18.03125 -29.21875 C 18.320312 -29.21875 18.53125 -29.378906 18.65625 -29.703125 C 18.789062 -30.023438 18.898438 -30.507812 18.984375 -31.15625 L 20 -31.15625 C 19.96875 -30.65625 19.925781 -30.0625 19.875 -29.375 C 19.832031 -28.6875 19.804688 -27.78125 19.796875 -26.65625 C 19.785156 -25.539062 19.78125 -24.0625 19.78125 -22.21875 L 18.765625 -22.21875 C 18.679688 -23.625 18.375 -24.96875 17.84375 -26.25 C 17.320312 -27.53125 16.554688 -28.578125 15.546875 -29.390625 C 14.546875 -30.210938 13.226562 -30.625 11.59375 -30.625 C 10.050781 -30.625 8.773438 -30.15625 7.765625 -29.21875 C 6.753906 -28.289062 6.25 -27.066406 6.25 -25.546875 C 6.25 -24.234375 6.582031 -23.128906 7.25 -22.234375 C 7.925781 -21.347656 8.828125 -20.546875 9.953125 -19.828125 C 11.078125 -19.117188 12.296875 -18.359375 13.609375 -17.546875 C 15.117188 -16.609375 16.460938 -15.679688 17.640625 -14.765625 C 18.828125 -13.847656 19.765625 -12.832031 20.453125 -11.71875 C 21.140625 -10.613281 21.484375 -9.273438 21.484375 -7.703125 C 21.484375 -5.835938 21.054688 -4.289062 20.203125 -3.0625 C 19.359375 -1.832031 18.238281 -0.910156 16.84375 -0.296875 C 15.445312 0.304688 13.898438 0.609375 12.203125 0.609375 C 10.660156 0.609375 9.4375 0.429688 8.53125 0.078125 C 7.625 -0.265625 6.851562 -0.625 6.21875 -1 C 5.570312 -1.414062 5.070312 -1.625 4.71875 -1.625 C 4.425781 -1.625 4.210938 -1.460938 4.078125 -1.140625 C 3.953125 -0.816406 3.847656 -0.332031 3.765625 0.3125 L 2.75 0.3125 C 2.8125 -0.300781 2.847656 -1.023438 2.859375 -1.859375 C 2.878906 -2.691406 2.894531 -3.773438 2.90625 -5.109375 C 2.925781 -6.453125 2.9375 -8.144531 2.9375 -10.1875 L 3.9375 -10.1875 C 4.050781 -8.4375 4.378906 -6.800781 4.921875 -5.28125 C 5.460938 -3.769531 6.289062 -2.554688 7.40625 -1.640625 C 8.53125 -0.722656 10.03125 -0.265625 11.90625 -0.265625 C 12.863281 -0.265625 13.769531 -0.457031 14.625 -0.84375 C 15.488281 -1.238281 16.195312 -1.867188 16.75 -2.734375 C 17.3125 -3.597656 17.59375 -4.710938 17.59375 -6.078125 C 17.59375 -7.273438 17.304688 -8.316406 16.734375 -9.203125 C 16.160156 -10.097656 15.363281 -10.929688 14.34375 -11.703125 C 13.320312 -12.472656 12.128906 -13.269531 10.765625 -14.09375 C 9.390625 -14.9375 8.101562 -15.796875 6.90625 -16.671875 C 5.71875 -17.546875 4.765625 -18.554688 4.046875 -19.703125 C 3.328125 -20.859375 2.96875 -22.253906 2.96875 -23.890625 C 2.96875 -25.609375 3.351562 -27.03125 4.125 -28.15625 C 4.90625 -29.28125 5.921875 -30.109375 7.171875 -30.640625 C 8.429688 -31.179688 9.773438 -31.453125 11.203125 -31.453125 Z M 11.203125 -31.453125 "/></g></g></g><g fill="#f6f6f6" fill-opacity="1"><g transform="translate(418.658129, 47.530738)"><g><path d="M 28.65625 -30.96875 L 28.65625 -30.09375 C 27.664062 -30.070312 26.914062 -29.925781 26.40625 -29.65625 C 25.894531 -29.394531 25.550781 -28.972656 25.375 -28.390625 C 25.195312 -27.804688 25.109375 -26.976562 25.109375 -25.90625 L 25.109375 -12.734375 C 25.109375 -10.691406 24.976562 -8.910156 24.71875 -7.390625 C 24.457031 -5.878906 23.988281 -4.566406 23.3125 -3.453125 C 22.582031 -2.234375 21.519531 -1.25 20.125 -0.5 C 18.726562 0.238281 17.125 0.609375 15.3125 0.609375 C 13.914062 0.609375 12.582031 0.441406 11.3125 0.109375 C 10.039062 -0.222656 8.925781 -0.84375 7.96875 -1.75 C 7.113281 -2.5625 6.445312 -3.421875 5.96875 -4.328125 C 5.488281 -5.234375 5.160156 -6.34375 4.984375 -7.65625 C 4.804688 -8.96875 4.71875 -10.613281 4.71875 -12.59375 L 4.71875 -26.34375 C 4.71875 -27.414062 4.628906 -28.207031 4.453125 -28.71875 C 4.285156 -29.226562 3.945312 -29.578125 3.4375 -29.765625 C 2.925781 -29.960938 2.175781 -30.070312 1.1875 -30.09375 L 1.1875 -30.96875 C 1.789062 -30.945312 2.585938 -30.921875 3.578125 -30.890625 C 4.578125 -30.859375 5.644531 -30.84375 6.78125 -30.84375 C 7.800781 -30.84375 8.8125 -30.859375 9.8125 -30.890625 C 10.820312 -30.921875 11.664062 -30.945312 12.34375 -30.96875 L 12.34375 -30.09375 C 11.34375 -30.070312 10.585938 -29.960938 10.078125 -29.765625 C 9.566406 -29.578125 9.222656 -29.226562 9.046875 -28.71875 C 8.878906 -28.207031 8.796875 -27.414062 8.796875 -26.34375 L 8.796875 -11.859375 C 8.796875 -10.367188 8.867188 -8.957031 9.015625 -7.625 C 9.160156 -6.300781 9.457031 -5.132812 9.90625 -4.125 C 10.363281 -3.125 11.054688 -2.335938 11.984375 -1.765625 C 12.921875 -1.203125 14.160156 -0.921875 15.703125 -0.921875 C 17.921875 -0.921875 19.632812 -1.40625 20.84375 -2.375 C 22.050781 -3.351562 22.894531 -4.703125 23.375 -6.421875 C 23.863281 -8.148438 24.109375 -10.09375 24.109375 -12.25 L 24.109375 -25.90625 C 24.109375 -26.976562 23.984375 -27.804688 23.734375 -28.390625 C 23.484375 -28.972656 23.066406 -29.394531 22.484375 -29.65625 C 21.898438 -29.925781 21.113281 -30.070312 20.125 -30.09375 L 20.125 -30.96875 C 20.644531 -30.945312 21.335938 -30.921875 22.203125 -30.890625 C 23.066406 -30.859375 23.863281 -30.84375 24.59375 -30.84375 C 25.34375 -30.84375 26.085938 -30.859375 26.828125 -30.890625 C 27.578125 -30.921875 28.1875 -30.945312 28.65625 -30.96875 Z M 28.65625 -30.96875 "/></g></g></g><g fill="#f6f6f6" fill-opacity="1"><g transform="translate(448.493012, 47.530738)"><g><path d="M 13 -30.96875 L 13 -30.09375 C 12 -30.070312 11.242188 -29.960938 10.734375 -29.765625 C 10.222656 -29.578125 9.878906 -29.226562 9.703125 -28.71875 C 9.535156 -28.207031 9.453125 -27.414062 9.453125 -26.34375 L 9.453125 -4.640625 C 9.453125 -3.585938 9.535156 -2.796875 9.703125 -2.265625 C 9.878906 -1.742188 10.222656 -1.398438 10.734375 -1.234375 C 11.242188 -1.078125 12 -1 13 -1 L 16.1875 -1 C 17.5625 -1 18.675781 -1.144531 19.53125 -1.4375 C 20.394531 -1.726562 21.082031 -2.1875 21.59375 -2.8125 C 22.101562 -3.445312 22.488281 -4.285156 22.75 -5.328125 C 23.007812 -6.378906 23.210938 -7.664062 23.359375 -9.1875 L 24.375 -9.1875 C 24.28125 -8.28125 24.234375 -7.082031 24.234375 -5.59375 C 24.234375 -5.039062 24.253906 -4.242188 24.296875 -3.203125 C 24.347656 -2.171875 24.429688 -1.101562 24.546875 0 C 23.054688 -0.0625 21.378906 -0.0976562 19.515625 -0.109375 C 17.648438 -0.117188 15.988281 -0.125 14.53125 -0.125 C 13.882812 -0.125 13.054688 -0.125 12.046875 -0.125 C 11.046875 -0.125 9.960938 -0.117188 8.796875 -0.109375 C 7.628906 -0.0976562 6.445312 -0.0820312 5.25 -0.0625 C 4.050781 -0.0507812 2.914062 -0.03125 1.84375 0 L 1.84375 -0.875 C 2.832031 -0.9375 3.582031 -1.050781 4.09375 -1.21875 C 4.601562 -1.394531 4.941406 -1.742188 5.109375 -2.265625 C 5.285156 -2.796875 5.375 -3.585938 5.375 -4.640625 L 5.375 -26.34375 C 5.375 -27.414062 5.285156 -28.207031 5.109375 -28.71875 C 4.941406 -29.226562 4.601562 -29.578125 4.09375 -29.765625 C 3.582031 -29.960938 2.832031 -30.070312 1.84375 -30.09375 L 1.84375 -30.96875 C 2.445312 -30.945312 3.242188 -30.921875 4.234375 -30.890625 C 5.234375 -30.859375 6.300781 -30.84375 7.4375 -30.84375 C 8.457031 -30.84375 9.46875 -30.859375 10.46875 -30.890625 C 11.476562 -30.921875 12.320312 -30.945312 13 -30.96875 Z M 13 -30.96875 "/></g></g></g><g fill="#f6f6f6" fill-opacity="1"><g transform="translate(471.153366, 47.530738)"><g><path d="M 25.90625 -30.96875 C 25.78125 -29.863281 25.695312 -28.789062 25.65625 -27.75 C 25.613281 -26.71875 25.59375 -25.925781 25.59375 -25.375 C 25.59375 -24.675781 25.609375 -24.019531 25.640625 -23.40625 C 25.671875 -22.789062 25.695312 -22.25 25.71875 -21.78125 L 24.71875 -21.78125 C 24.507812 -23.820312 24.226562 -25.429688 23.875 -26.609375 C 23.53125 -27.796875 22.921875 -28.648438 22.046875 -29.171875 C 21.171875 -29.703125 19.816406 -29.96875 17.984375 -29.96875 L 15.625 -29.96875 L 15.625 -5.078125 C 15.625 -3.910156 15.734375 -3.035156 15.953125 -2.453125 C 16.171875 -1.867188 16.597656 -1.472656 17.234375 -1.265625 C 17.878906 -1.066406 18.8125 -0.9375 20.03125 -0.875 L 20.03125 0 C 19.28125 -0.0625 18.320312 -0.0976562 17.15625 -0.109375 C 15.988281 -0.117188 14.804688 -0.125 13.609375 -0.125 C 12.296875 -0.125 11.0625 -0.117188 9.90625 -0.109375 C 8.757812 -0.0976562 7.832031 -0.0625 7.125 0 L 7.125 -0.875 C 8.351562 -0.9375 9.285156 -1.066406 9.921875 -1.265625 C 10.566406 -1.472656 11 -1.867188 11.21875 -2.453125 C 11.4375 -3.035156 11.546875 -3.910156 11.546875 -5.078125 L 11.546875 -29.96875 L 9.1875 -29.96875 C 7.375 -29.96875 6.023438 -29.703125 5.140625 -29.171875 C 4.253906 -28.648438 3.632812 -27.796875 3.28125 -26.609375 C 2.925781 -25.429688 2.648438 -23.820312 2.453125 -21.78125 L 1.4375 -21.78125 C 1.5 -22.25 1.535156 -22.789062 1.546875 -23.40625 C 1.566406 -24.019531 1.578125 -24.675781 1.578125 -25.375 C 1.578125 -25.925781 1.550781 -26.71875 1.5 -27.75 C 1.457031 -28.789062 1.378906 -29.863281 1.265625 -30.96875 C 2.492188 -30.945312 3.828125 -30.921875 5.265625 -30.890625 C 6.710938 -30.859375 8.164062 -30.84375 9.625 -30.84375 C 11.082031 -30.84375 12.410156 -30.84375 13.609375 -30.84375 C 14.804688 -30.84375 16.125 -30.84375 17.5625 -30.84375 C 19.007812 -30.84375 20.460938 -30.859375 21.921875 -30.890625 C 23.378906 -30.921875 24.707031 -30.945312 25.90625 -30.96875 Z M 25.90625 -30.96875 "/></g></g></g><g fill="#f6f6f6" fill-opacity="1"><g transform="translate(498.319716, 47.530738)"><g><path d="M 13 -30.96875 L 13 -30.09375 C 12 -30.070312 11.242188 -29.960938 10.734375 -29.765625 C 10.222656 -29.578125 9.878906 -29.226562 9.703125 -28.71875 C 9.535156 -28.207031 9.453125 -27.414062 9.453125 -26.34375 L 9.453125 -4.640625 C 9.453125 -3.585938 9.535156 -2.796875 9.703125 -2.265625 C 9.878906 -1.742188 10.222656 -1.394531 10.734375 -1.21875 C 11.242188 -1.050781 12 -0.9375 13 -0.875 L 13 0 C 12.320312 -0.0625 11.476562 -0.0976562 10.46875 -0.109375 C 9.46875 -0.117188 8.457031 -0.125 7.4375 -0.125 C 6.300781 -0.125 5.234375 -0.117188 4.234375 -0.109375 C 3.242188 -0.0976562 2.445312 -0.0625 1.84375 0 L 1.84375 -0.875 C 2.832031 -0.9375 3.582031 -1.050781 4.09375 -1.21875 C 4.601562 -1.394531 4.941406 -1.742188 5.109375 -2.265625 C 5.285156 -2.796875 5.375 -3.585938 5.375 -4.640625 L 5.375 -26.34375 C 5.375 -27.414062 5.285156 -28.207031 5.109375 -28.71875 C 4.941406 -29.226562 4.601562 -29.578125 4.09375 -29.765625 C 3.582031 -29.960938 2.832031 -30.070312 1.84375 -30.09375 L 1.84375 -30.96875 C 2.445312 -30.945312 3.242188 -30.921875 4.234375 -30.890625 C 5.234375 -30.859375 6.300781 -30.84375 7.4375 -30.84375 C 8.457031 -30.84375 9.46875 -30.859375 10.46875 -30.890625 C 11.476562 -30.921875 12.320312 -30.945312 13 -30.96875 Z M 13 -30.96875 "/></g></g></g><g fill="#f6f6f6" fill-opacity="1"><g transform="translate(513.149656, 47.530738)"><g><path d="M 29.3125 -30.96875 L 29.3125 -30.09375 C 28.320312 -30.070312 27.570312 -29.925781 27.0625 -29.65625 C 26.550781 -29.394531 26.207031 -28.972656 26.03125 -28.390625 C 25.851562 -27.804688 25.765625 -26.976562 25.765625 -25.90625 L 25.765625 0.21875 C 25.585938 0.21875 25.421875 0.21875 25.265625 0.21875 C 25.109375 0.21875 24.941406 0.21875 24.765625 0.21875 L 6.390625 -28.171875 L 6.390625 -5.078125 C 6.390625 -4.023438 6.484375 -3.195312 6.671875 -2.59375 C 6.859375 -2 7.234375 -1.578125 7.796875 -1.328125 C 8.367188 -1.085938 9.226562 -0.9375 10.375 -0.875 L 10.375 0 C 9.84375 -0.0625 9.15625 -0.0976562 8.3125 -0.109375 C 7.46875 -0.117188 6.664062 -0.125 5.90625 -0.125 C 5.175781 -0.125 4.4375 -0.117188 3.6875 -0.109375 C 2.945312 -0.0976562 2.332031 -0.0625 1.84375 0 L 1.84375 -0.875 C 2.832031 -0.9375 3.582031 -1.085938 4.09375 -1.328125 C 4.601562 -1.578125 4.941406 -2 5.109375 -2.59375 C 5.285156 -3.195312 5.375 -4.023438 5.375 -5.078125 L 5.375 -26.34375 C 5.375 -27.414062 5.285156 -28.207031 5.109375 -28.71875 C 4.941406 -29.226562 4.601562 -29.578125 4.09375 -29.765625 C 3.582031 -29.960938 2.832031 -30.070312 1.84375 -30.09375 L 1.84375 -30.96875 C 2.332031 -30.945312 2.945312 -30.921875 3.6875 -30.890625 C 4.4375 -30.859375 5.175781 -30.84375 5.90625 -30.84375 C 6.550781 -30.84375 7.164062 -30.859375 7.75 -30.890625 C 8.332031 -30.921875 8.851562 -30.945312 9.3125 -30.96875 L 24.765625 -7.171875 L 24.765625 -25.90625 C 24.765625 -26.976562 24.664062 -27.804688 24.46875 -28.390625 C 24.28125 -28.972656 23.898438 -29.394531 23.328125 -29.65625 C 22.765625 -29.925781 21.914062 -30.070312 20.78125 -30.09375 L 20.78125 -30.96875 C 21.300781 -30.945312 21.992188 -30.921875 22.859375 -30.890625 C 23.722656 -30.859375 24.519531 -30.84375 25.25 -30.84375 C 26 -30.84375 26.742188 -30.859375 27.484375 -30.890625 C 28.234375 -30.921875 28.84375 -30.945312 29.3125 -30.96875 Z M 29.3125 -30.96875 "/></g></g></g><g fill="#f6f6f6" fill-opacity="1"><g transform="translate(543.728176, 47.530738)"><g><path d="M 16.453125 -31.59375 C 18.347656 -31.59375 19.878906 -31.304688 21.046875 -30.734375 C 22.210938 -30.160156 23.304688 -29.5 24.328125 -28.75 C 24.703125 -28.457031 24.992188 -28.3125 25.203125 -28.3125 C 25.753906 -28.3125 26.117188 -29.195312 26.296875 -30.96875 L 27.296875 -30.96875 C 27.242188 -29.894531 27.203125 -28.582031 27.171875 -27.03125 C 27.140625 -25.488281 27.125 -23.445312 27.125 -20.90625 L 26.125 -20.90625 C 25.914062 -22.132812 25.664062 -23.316406 25.375 -24.453125 C 25.082031 -25.585938 24.601562 -26.566406 23.9375 -27.390625 C 23.082031 -28.460938 21.96875 -29.296875 20.59375 -29.890625 C 19.226562 -30.492188 17.816406 -30.796875 16.359375 -30.796875 C 14.898438 -30.796875 13.578125 -30.4375 12.390625 -29.71875 C 11.210938 -29.007812 10.203125 -27.984375 9.359375 -26.640625 C 8.515625 -25.296875 7.863281 -23.679688 7.40625 -21.796875 C 6.957031 -19.921875 6.734375 -17.800781 6.734375 -15.4375 C 6.734375 -10.1875 7.578125 -6.34375 9.265625 -3.90625 C 10.960938 -1.476562 13.59375 -0.265625 17.15625 -0.265625 C 18.195312 -0.265625 19.101562 -0.414062 19.875 -0.71875 C 20.65625 -1.03125 21.265625 -1.332031 21.703125 -1.625 C 22.253906 -2 22.601562 -2.351562 22.75 -2.6875 C 22.894531 -3.019531 22.96875 -3.46875 22.96875 -4.03125 L 22.96875 -8.21875 C 22.96875 -9.414062 22.847656 -10.304688 22.609375 -10.890625 C 22.378906 -11.472656 21.953125 -11.863281 21.328125 -12.0625 C 20.703125 -12.269531 19.773438 -12.390625 18.546875 -12.421875 L 18.546875 -13.296875 C 19.078125 -13.265625 19.691406 -13.242188 20.390625 -13.234375 C 21.085938 -13.222656 21.820312 -13.207031 22.59375 -13.1875 C 23.363281 -13.175781 24.070312 -13.171875 24.71875 -13.171875 C 25.675781 -13.171875 26.539062 -13.179688 27.3125 -13.203125 C 28.09375 -13.234375 28.742188 -13.265625 29.265625 -13.296875 L 29.265625 -12.421875 C 28.628906 -12.390625 28.148438 -12.285156 27.828125 -12.109375 C 27.503906 -11.941406 27.289062 -11.59375 27.1875 -11.0625 C 27.082031 -10.539062 27.03125 -9.738281 27.03125 -8.65625 L 27.03125 0 L 26.15625 0 C 26.132812 -0.5 26.023438 -1.039062 25.828125 -1.625 C 25.640625 -2.207031 25.359375 -2.5 24.984375 -2.5 C 24.804688 -2.5 24.628906 -2.453125 24.453125 -2.359375 C 24.273438 -2.273438 23.96875 -2.070312 23.53125 -1.75 C 22.570312 -1.019531 21.550781 -0.441406 20.46875 -0.015625 C 19.394531 0.398438 18.144531 0.609375 16.71875 0.609375 C 13.707031 0.609375 11.128906 -0.0078125 8.984375 -1.25 C 6.847656 -2.488281 5.207031 -4.273438 4.0625 -6.609375 C 2.925781 -8.941406 2.359375 -11.726562 2.359375 -14.96875 C 2.359375 -18.375 2.96875 -21.316406 4.1875 -23.796875 C 5.414062 -26.273438 7.085938 -28.191406 9.203125 -29.546875 C 11.316406 -30.910156 13.734375 -31.59375 16.453125 -31.59375 Z M 16.453125 -31.59375 "/></g></g></g><g fill="#f6f6f6" fill-opacity="1"><g transform="translate(574.481654, 47.530738)"><g><path d="M 5.515625 -4.984375 C 6.273438 -4.984375 6.929688 -4.707031 7.484375 -4.15625 C 8.035156 -3.601562 8.3125 -2.945312 8.3125 -2.1875 C 8.3125 -1.425781 8.035156 -0.769531 7.484375 -0.21875 C 6.929688 0.332031 6.273438 0.609375 5.515625 0.609375 C 4.753906 0.609375 4.097656 0.332031 3.546875 -0.21875 C 2.992188 -0.769531 2.71875 -1.425781 2.71875 -2.1875 C 2.71875 -2.945312 2.992188 -3.601562 3.546875 -4.15625 C 4.097656 -4.707031 4.753906 -4.984375 5.515625 -4.984375 Z M 5.515625 -4.984375 "/></g></g></g><g fill="#f6f6f6" fill-opacity="1"><g transform="translate(585.511836, 47.530738)"><g/></g></g></svg>